<svg width="239" height="277" viewBox="0 0 239 277" fill="none" xmlns="http://www.w3.org/2000/svg">
<rect x="234.738" y="69.5059" width="210.749" height="185.146" rx="9.84118" transform="rotate(104.46 234.738 69.5059)" fill="#FFFFCA"/>
<rect x="235.909" y="65.543" width="207.797" height="181.14" rx="9.84118" transform="rotate(102.301 235.909 65.543)" fill="#FBC5B9"/>
<rect x="229.987" y="58.3166" width="200.72" height="174.646" rx="6.88746" transform="rotate(98.5581 229.987 58.3166)" fill="#FFFFDE"/>
<path d="M122.509 127.577L129.817 97.9844L159.047 111.137L192.213 115.521L174.225 141.826L184.343 193.339L150.053 174.159L119.136 213.616V165.39L83.1602 147.306L122.509 127.577Z" fill="#FFFF8E" stroke="#272A3A" stroke-width="4.52226"/>
<path d="M156.041 133.627C156.041 137.058 152.354 140.285 147.185 140.285C142.017 140.285 138.329 137.058 138.329 133.627C138.329 130.195 142.017 126.968 147.185 126.968C152.354 126.968 156.041 130.195 156.041 133.627Z" fill="#D9D9D9" stroke="#272A3A" stroke-width="2.26113"/>
<ellipse cx="148.184" cy="133.628" rx="4.99333" ry="3.89439" fill="#272A3A"/>
<path d="M137.199 133.627C140.002 127.749 147.921 119.52 157.172 133.627" stroke="#272A3A" stroke-width="6.78339"/>
<path d="M173.032 217.69L162.17 215.338L164.523 204.477L175.384 206.829L173.032 217.69ZM142.825 168.27L169.922 210.347L167.633 211.821L140.536 169.744L142.825 168.27Z" fill="#F8C428"/>
<path d="M66.6591 87.0658L82.3821 87.5522L81.9047 102.985L66.1817 102.499L66.6591 87.0658ZM104.887 129.743L72.8789 96.32L75.6849 93.7311L107.693 127.154L104.887 129.743Z" fill="#F8C428"/>
<path d="M89.4529 111.607L92.7302 114.912L110.242 97.4675L106.947 94.1804L89.4529 111.607Z" fill="#F8C428"/>
<path d="M84.1018 69.6226L99.8249 70.1089L99.3475 85.5419L83.6245 85.0556L84.1018 69.6226ZM122.33 112.299L90.3217 78.8767L93.1277 76.2878L125.136 109.71L122.33 112.299Z" fill="#F8C428"/>
<rect x="229.987" y="58.3166" width="200.72" height="174.646" rx="6.88746" transform="rotate(98.5581 229.987 58.3166)" stroke="#131626" stroke-width="5.90354"/>
<path d="M72.6087 15.6763L65.2896 31.0531L72.1984 46.6186L56.8216 39.2995L41.2561 46.2082L48.5752 30.8314L41.6664 15.266L57.0432 22.5851L72.6087 15.6763Z" fill="#F2522E"/>
</svg>
