<svg width="244" height="271" viewBox="0 0 244 271" fill="none" xmlns="http://www.w3.org/2000/svg">
<rect x="198.864" y="18.1963" width="210.749" height="178.627" rx="9.84118" transform="rotate(84.0289 198.864 18.1963)" fill="#DADDD9"/>
<rect x="198.957" y="14.1699" width="207.797" height="177.557" rx="9.84118" transform="rotate(81.8699 198.957 14.1699)" fill="#64F6B9"/>
<g clip-path="url(#clip0_500_11339)">
<rect x="197.729" y="7.53027" width="206.624" height="180.55" rx="9.83923" transform="rotate(78.1274 197.729 7.53027)" fill="#FCDCD5"/>
<path d="M101.757 186.79L167.719 167.512L141.119 146.389L137.221 143.293L142.04 142.048L197.456 127.725L153.202 113.809L150.892 113.083L151.564 110.756C152.064 109.028 153.239 107.477 154.53 106.122C155.855 104.732 157.522 103.326 159.3 101.919C160.484 100.982 161.716 100.045 162.969 99.0906C165.588 97.0969 168.299 95.033 170.861 92.7603C174.623 89.4226 177.663 85.9602 179.128 82.2885C180.527 78.7797 180.559 74.9159 177.945 70.3883C172.576 61.0884 159.738 55.8636 145.55 54.2687C131.428 52.6811 117.144 54.8309 109.802 59.0699C80.6263 75.9143 67.0678 106.377 73.4621 131.487C75.0618 137.768 77.3677 141.071 79.7548 142.78C82.1159 144.471 84.9616 144.893 88.3064 144.529C91.5972 144.17 95.064 143.09 98.6427 141.975C98.7607 141.938 98.8789 141.901 98.9972 141.865C102.53 140.765 106.341 139.589 109.661 139.572L112.802 139.556L112.087 142.615L101.757 186.79Z" fill="#FBC5B9" stroke="#272A3A" stroke-width="4.95746"/>
<path d="M136.058 105.544C137.974 108.862 136.328 113.879 131.633 116.59C126.937 119.301 121.77 118.217 119.854 114.899C117.938 111.581 119.584 106.564 124.279 103.853C128.975 101.142 134.142 102.226 136.058 105.544Z" fill="#FFFAF5" stroke="#272A3A" stroke-width="2.47873"/>
<ellipse cx="128.874" cy="109.691" rx="5.29729" ry="4.29647" transform="rotate(-30 128.874 109.691)" fill="#272A3A"/>
<path d="M118.781 115.519C118.114 108.416 120.851 96.3536 137.131 104.924" stroke="#272A3A" stroke-width="7.43619"/>
<path d="M99.6272 101.772C101.543 105.091 99.8976 110.108 95.2021 112.818C90.5067 115.529 85.3392 114.446 83.4235 111.128C81.5078 107.81 83.1531 102.793 87.8486 100.082C92.544 97.3708 97.7115 98.4544 99.6272 101.772Z" fill="#FFFAF5" stroke="#272A3A" stroke-width="2.47873"/>
<ellipse cx="92.4438" cy="105.92" rx="5.29729" ry="4.29647" transform="rotate(-30 92.4438 105.92)" fill="#272A3A"/>
<path d="M82.3502 111.747C81.6834 104.645 84.4201 92.5821 100.701 101.153" stroke="#272A3A" stroke-width="7.43619"/>
<path d="M104.326 164.117C94.8091 189.086 76.3128 172.176 68.2541 160.601L49.4231 140.491C54.1148 141.471 67.2347 145.256 82.1802 152.56C97.1257 159.865 96.1443 151.137 93.7853 145.86L107.711 137.82L118.252 156.077C114.862 150.205 105.593 160.793 104.326 164.117Z" fill="#FAA554" stroke="#272A3A" stroke-width="5.37125" stroke-linejoin="round"/>
<path d="M208.242 166.612L190.339 175.108L181.843 157.205L199.746 148.709L208.242 166.612ZM140.988 140.07L195.857 159.622L194.228 164.195L139.359 144.643L140.988 140.07Z" fill="#FAA554"/>
</g>
<rect x="195.447" y="11.0262" width="200.72" height="174.646" rx="6.88746" transform="rotate(78.1274 195.447 11.0262)" stroke="#131626" stroke-width="5.90354"/>
<path d="M67.4236 232.801L61.5115 245.222L67.0921 257.796L54.6713 251.884L42.098 257.464L48.0101 245.043L42.4295 232.47L54.8503 238.382L67.4236 232.801Z" fill="#F8C428"/>
<defs>
<clipPath id="clip0_500_11339">
<rect x="197.729" y="7.53027" width="206.624" height="180.55" rx="9.83923" transform="rotate(78.1274 197.729 7.53027)" fill="white"/>
</clipPath>
</defs>
</svg>
