<svg width="164" height="101" viewBox="0 0 164 101" fill="none" xmlns="http://www.w3.org/2000/svg">
<path d="M127.25 54.8367C127.25 82.4052 99.168 74.3097 93.9026 81.9676L53.0522 87C45.4467 80.4361 25.7601 85.0308 31.3765 54.8367C36.9929 24.6426 58.4053 1.45 84.7321 1.45C98.7731 1.45 127.25 27.2682 127.25 54.8367Z" fill="#F8C428" stroke="#131626" stroke-width="2"/>
<path d="M86.3887 21.75C86.3887 23.1495 85.6 24.4626 84.2326 25.4451C82.866 26.4271 80.9526 27.05 78.8164 27.05C76.6802 27.05 74.7668 26.4271 73.4002 25.4451C72.0328 24.4626 71.2441 23.1495 71.2441 21.75C71.2441 20.3504 72.0328 19.0373 73.4002 18.0548C74.7668 17.0728 76.6802 16.45 78.8164 16.45C80.9526 16.45 82.866 17.0728 84.2326 18.0548C85.6 19.0373 86.3887 20.3504 86.3887 21.75Z" fill="#D9D9D9" stroke="#131626"/>
<ellipse cx="79.624" cy="21.75" rx="4.03613" ry="2.9" fill="#131626"/>
<path d="M70.7441 21.75C73.01 17.3731 79.4112 11.2456 86.8887 21.75" stroke="#131626" stroke-width="3"/>
<mask id="path-7-inside-1_783_11584" fill="white">
<path fill-rule="evenodd" clip-rule="evenodd" d="M139.714 38.0518C140.179 38.3776 140.698 38.672 141.261 38.9291C140.703 39.0871 140.179 39.3419 139.703 39.6771L139.714 38.0518ZM139.771 29.5778C140.025 29.4039 140.294 29.2394 140.577 29.0851C140.298 28.9528 140.031 28.795 139.778 28.6142L139.771 29.5778ZM138.979 19.8121C140.597 18.1608 142.744 17.08 142.744 17.08L151.955 23.2794C151.955 23.2794 149.487 25.7587 146.9 27.602L146.947 27.6021C152.333 27.6252 163.454 33.8354 163.454 33.8354C163.454 33.8354 152.249 40.112 146.863 40.0889C146.65 40.088 146.438 40.0827 146.229 40.0732C149.524 41.8943 153.293 44.942 153.293 44.942C153.293 44.942 145.559 51.2386 142.529 51.2256C142.529 51.2256 140.654 50.2593 139.105 48.7661L125.293 48.7069L125.489 19.7543L138.979 19.8121Z"/>
</mask>
<path fill-rule="evenodd" clip-rule="evenodd" d="M139.714 38.0518C140.179 38.3776 140.698 38.672 141.261 38.9291C140.703 39.0871 140.179 39.3419 139.703 39.6771L139.714 38.0518ZM139.771 29.5778C140.025 29.4039 140.294 29.2394 140.577 29.0851C140.298 28.9528 140.031 28.795 139.778 28.6142L139.771 29.5778ZM138.979 19.8121C140.597 18.1608 142.744 17.08 142.744 17.08L151.955 23.2794C151.955 23.2794 149.487 25.7587 146.9 27.602L146.947 27.6021C152.333 27.6252 163.454 33.8354 163.454 33.8354C163.454 33.8354 152.249 40.112 146.863 40.0889C146.65 40.088 146.438 40.0827 146.229 40.0732C149.524 41.8943 153.293 44.942 153.293 44.942C153.293 44.942 145.559 51.2386 142.529 51.2256C142.529 51.2256 140.654 50.2593 139.105 48.7661L125.293 48.7069L125.489 19.7543L138.979 19.8121Z" fill="#F2522E"/>
<path d="M141.261 38.9291L141.804 40.8532L147.041 39.3691L142.094 37.1096L141.261 38.9291ZM139.714 38.0518L140.862 36.4129L137.74 34.2267L137.714 38.0407L139.714 38.0518ZM139.703 39.6771L137.703 39.666L137.677 43.547L140.853 41.3122L139.703 39.6771ZM139.771 29.5778L137.771 29.5668L137.745 33.3885L140.9 31.2273L139.771 29.5778ZM140.577 29.0851L141.533 30.841L144.986 28.9595L141.436 27.2775L140.577 29.0851ZM139.778 28.6142L140.941 26.9858L137.804 24.7468L137.778 28.6032L139.778 28.6142ZM138.979 19.8121L138.968 21.8121L139.814 21.8157L140.407 21.2109L138.979 19.8121ZM142.744 17.08L143.862 15.4204L142.892 14.7676L141.847 15.2938L142.744 17.08ZM151.955 23.2794L153.372 24.6895L155.082 22.9716L153.073 21.6198L151.955 23.2794ZM146.9 27.602L145.741 25.9737L140.673 29.5848L146.892 29.602L146.9 27.602ZM146.947 27.6021L146.958 25.6022L146.955 25.6022L146.947 27.6021ZM163.454 33.8354L164.43 35.58L167.552 33.8315L164.431 32.089L163.454 33.8354ZM146.863 40.0889L146.852 42.0888L146.852 42.0888L146.863 40.0889ZM146.229 40.0732L146.322 38.0752L145.26 41.8238L146.229 40.0732ZM153.293 44.942L154.555 46.4924L156.468 44.9351L154.552 43.3862L153.293 44.942ZM142.529 51.2256L141.611 53.0036L142.038 53.2235L142.518 53.2256L142.529 51.2256ZM139.105 48.7661L140.494 47.3253L139.918 46.7696L139.116 46.7662L139.105 48.7661ZM125.293 48.7069L123.293 48.6959L123.28 50.6983L125.282 50.7069L125.293 48.7069ZM125.489 19.7543L125.5 17.7543L123.502 17.7457L123.489 19.7432L125.489 19.7543ZM142.094 37.1096C141.632 36.8989 141.22 36.6637 140.862 36.4129L138.565 39.6906C139.138 40.0916 139.764 40.4451 140.428 40.7485L142.094 37.1096ZM140.853 41.3122C141.154 41.1003 141.474 40.9467 141.804 40.8532L140.718 37.0049C139.933 37.2274 139.205 37.5835 138.553 38.0419L140.853 41.3122ZM137.714 38.0407L137.703 39.666L141.703 39.6881L141.714 38.0628L137.714 38.0407ZM140.9 31.2273C141.095 31.0936 141.306 30.9643 141.533 30.841L139.622 27.3292C139.282 27.5145 138.955 27.7143 138.642 27.9283L140.9 31.2273ZM141.436 27.2775C141.266 27.1972 141.101 27.0999 140.941 26.9858L138.614 30.2426C138.961 30.4901 139.33 30.7084 139.719 30.8926L141.436 27.2775ZM137.778 28.6032L137.771 29.5668L141.771 29.5889L141.778 28.6253L137.778 28.6032ZM140.407 21.2109C141.072 20.5315 141.879 19.9403 142.551 19.5073C142.88 19.2948 143.163 19.1292 143.36 19.0187C143.458 18.9636 143.534 18.9226 143.583 18.8968C143.608 18.8839 143.625 18.8748 143.635 18.8697C143.64 18.8671 143.643 18.8655 143.644 18.865C143.645 18.8647 143.645 18.8646 143.644 18.8649C143.644 18.865 143.644 18.8651 143.643 18.8654C143.643 18.8655 143.643 18.8656 143.642 18.8658C143.642 18.8659 143.642 18.866 143.642 18.866C143.642 18.8661 143.641 18.8663 142.744 17.08C141.847 15.2938 141.846 15.2939 141.846 15.2941C141.846 15.2941 141.846 15.2943 141.845 15.2944C141.845 15.2946 141.845 15.2949 141.844 15.2951C141.843 15.2956 141.842 15.2962 141.841 15.2968C141.838 15.2981 141.835 15.2996 141.832 15.3014C141.825 15.305 141.815 15.3097 141.804 15.3155C141.782 15.327 141.752 15.3428 141.714 15.3626C141.639 15.4024 141.535 15.4588 141.406 15.5308C141.15 15.6745 140.795 15.8823 140.386 16.1464C139.579 16.6666 138.503 17.4414 137.551 18.4133L140.407 21.2109ZM141.626 18.7397L150.837 24.939L153.073 21.6198L143.862 15.4204L141.626 18.7397ZM151.955 23.2794C150.539 21.8693 150.539 21.8692 150.539 21.8691C150.539 21.8691 150.539 21.869 150.539 21.869C150.539 21.8689 150.539 21.8689 150.539 21.8689C150.539 21.8689 150.539 21.8691 150.539 21.8694C150.538 21.87 150.537 21.8712 150.535 21.873C150.531 21.8766 150.525 21.8825 150.517 21.8906C150.501 21.9068 150.476 21.9318 150.442 21.965C150.375 22.0312 150.274 22.1297 150.144 22.2545C149.884 22.5041 149.51 22.8575 149.058 23.2667C148.145 24.0916 146.946 25.1153 145.741 25.9737L148.059 29.2303C149.442 28.2454 150.77 27.1078 151.738 26.2322C152.226 25.7912 152.63 25.4095 152.914 25.1367C153.056 25.0002 153.168 24.8906 153.246 24.8141C153.285 24.7758 153.315 24.7458 153.337 24.7248C153.347 24.7143 153.355 24.706 153.361 24.7001C153.364 24.6971 153.367 24.6948 153.368 24.693C153.369 24.6921 153.37 24.6914 153.371 24.6908C153.371 24.6905 153.371 24.6903 153.371 24.69C153.371 24.6899 153.372 24.6898 153.372 24.6897C153.372 24.6896 153.372 24.6895 151.955 23.2794ZM146.892 29.602L146.939 29.6021L146.955 25.6022L146.908 25.602L146.892 29.602ZM146.936 29.6021C147.967 29.6065 149.434 29.9207 151.178 30.4878C152.884 31.0428 154.707 31.79 156.397 32.5512C158.082 33.3101 159.607 34.0703 160.712 34.6415C161.264 34.9267 161.709 35.1638 162.014 35.3287C162.167 35.4111 162.284 35.4754 162.363 35.5186C162.402 35.5402 162.432 35.5566 162.451 35.5672C162.461 35.5726 162.468 35.5765 162.472 35.5789C162.474 35.5802 162.476 35.581 162.477 35.5815C162.477 35.5818 162.478 35.5819 162.478 35.582C162.478 35.582 162.478 35.582 162.478 35.582C162.478 35.5819 162.477 35.5819 163.454 33.8354C164.431 32.089 164.431 32.0888 164.431 32.0887C164.43 32.0886 164.43 32.0884 164.43 32.0883C164.429 32.088 164.428 32.0875 164.428 32.087C164.426 32.086 164.423 32.0846 164.42 32.0829C164.414 32.0794 164.405 32.0744 164.393 32.068C164.37 32.0551 164.336 32.0366 164.293 32.0127C164.206 31.9649 164.08 31.8958 163.918 31.8084C163.594 31.6336 163.128 31.3853 162.553 31.0879C161.404 30.494 159.812 29.7002 158.044 28.9037C156.28 28.1094 154.313 27.2998 152.419 26.6838C150.563 26.08 148.621 25.6093 146.958 25.6022L146.936 29.6021ZM163.454 33.8354C162.478 32.0908 162.479 32.0907 162.479 32.0907C162.479 32.0907 162.479 32.0907 162.479 32.0907C162.479 32.0908 162.478 32.0909 162.478 32.0912C162.477 32.0917 162.475 32.0925 162.473 32.0938C162.469 32.0962 162.462 32.1002 162.452 32.1056C162.433 32.1164 162.403 32.1328 162.363 32.1547C162.284 32.1983 162.165 32.2633 162.012 32.3466C161.704 32.5131 161.256 32.7525 160.701 33.0403C159.588 33.6169 158.053 34.3836 156.358 35.1477C154.658 35.914 152.826 36.6646 151.114 37.2188C149.363 37.7855 147.897 38.0933 146.874 38.0889L146.852 42.0888C148.522 42.096 150.477 41.6279 152.341 41.0242C154.245 40.4081 156.224 39.5939 157.998 38.7939C159.778 37.9917 161.381 37.1908 162.538 36.5912C163.117 36.291 163.587 36.0402 163.913 35.8635C164.076 35.7752 164.203 35.7054 164.291 35.6571C164.335 35.633 164.369 35.6142 164.392 35.6012C164.404 35.5948 164.413 35.5897 164.419 35.5862C164.422 35.5844 164.425 35.583 164.427 35.5819C164.427 35.5814 164.428 35.581 164.429 35.5807C164.429 35.5805 164.429 35.5804 164.43 35.5803C164.43 35.5801 164.43 35.58 163.454 33.8354ZM146.874 38.0889C146.688 38.0881 146.504 38.0835 146.322 38.0752L146.136 42.0711C146.373 42.0818 146.612 42.0878 146.852 42.0888L146.874 38.0889ZM145.26 41.8238C146.798 42.6741 148.485 43.8339 149.815 44.8058C150.474 45.2871 151.033 45.7131 151.426 46.018C151.622 46.1703 151.776 46.292 151.881 46.3748C151.933 46.4162 151.972 46.4479 151.998 46.4687C152.011 46.4792 152.021 46.4869 152.027 46.4918C152.03 46.4943 152.032 46.496 152.034 46.497C152.034 46.4975 152.035 46.4979 152.035 46.498C152.035 46.4981 152.035 46.4981 152.035 46.4981C152.035 46.4981 152.035 46.498 152.035 46.498C152.035 46.498 152.035 46.4979 153.293 44.942C154.552 43.3862 154.552 43.3861 154.552 43.386C154.552 43.3859 154.552 43.3858 154.551 43.3857C154.551 43.3855 154.551 43.3852 154.55 43.385C154.55 43.3844 154.549 43.3836 154.548 43.3826C154.545 43.3807 154.542 43.378 154.538 43.3747C154.529 43.3679 154.517 43.3583 154.502 43.346C154.471 43.3213 154.427 43.2857 154.369 43.2402C154.255 43.1493 154.089 43.0186 153.88 42.8567C153.463 42.5332 152.874 42.0835 152.178 41.5752C150.799 40.5679 148.955 39.2933 147.198 38.3225L145.26 41.8238ZM153.293 44.942C152.032 43.3917 152.032 43.3916 152.032 43.3915C152.032 43.3915 152.032 43.3915 152.032 43.3915C152.032 43.3915 152.032 43.3916 152.032 43.3919C152.031 43.3923 152.03 43.3931 152.029 43.3943C152.026 43.3967 152.021 43.4005 152.014 43.4058C152.001 43.4164 151.981 43.4327 151.954 43.4544C151.9 43.4976 151.819 43.5623 151.715 43.6452C151.505 43.8111 151.2 44.0498 150.825 44.337C150.071 44.9126 149.041 45.676 147.924 46.4354C146.8 47.1997 145.627 47.9341 144.581 48.4688C143.439 49.0524 142.77 49.2267 142.54 49.2257L142.518 53.2256C143.804 53.2311 145.237 52.6232 146.398 52.0299C147.654 51.3876 148.983 50.5502 150.171 49.742C151.367 48.9289 152.459 48.119 153.25 47.5144C153.647 47.2114 153.97 46.9583 154.196 46.7799C154.308 46.6907 154.397 46.6201 154.457 46.5711C154.488 46.5467 154.511 46.5276 154.528 46.5144C154.536 46.5077 154.542 46.5026 154.547 46.4989C154.549 46.4971 154.551 46.4956 154.552 46.4945C154.553 46.494 154.554 46.4935 154.554 46.4932C154.554 46.493 154.554 46.4928 154.555 46.4927C154.555 46.4925 154.555 46.4924 153.293 44.942ZM142.529 51.2256C143.447 49.4477 143.448 49.4478 143.448 49.4479C143.448 49.4479 143.448 49.4481 143.448 49.4481C143.449 49.4483 143.449 49.4484 143.449 49.4485C143.45 49.4488 143.45 49.4489 143.45 49.4491C143.451 49.4493 143.451 49.4493 143.45 49.4491C143.449 49.4487 143.447 49.4474 143.443 49.4452C143.434 49.4407 143.419 49.4328 143.398 49.4214C143.356 49.3987 143.29 49.3623 143.204 49.3132C143.031 49.2148 142.781 49.0667 142.486 48.8759C141.886 48.4884 141.144 47.9519 140.494 47.3253L137.716 50.207C138.615 51.0735 139.586 51.7668 140.311 52.2358C140.678 52.4732 140.993 52.66 141.221 52.7894C141.334 52.8542 141.427 52.9051 141.493 52.941C141.527 52.9589 141.553 52.9732 141.573 52.9837C141.583 52.9889 141.591 52.9932 141.598 52.9965C141.601 52.9982 141.604 52.9996 141.606 53.0008C141.607 53.0014 141.608 53.0019 141.609 53.0024C141.609 53.0026 141.61 53.0029 141.61 53.0031C141.611 53.0032 141.611 53.0033 141.611 53.0034C141.611 53.0035 141.611 53.0036 142.529 51.2256ZM139.116 46.7662L125.304 46.7069L125.282 50.7069L139.094 50.7661L139.116 46.7662ZM127.293 48.7179L127.489 19.7653L123.489 19.7432L123.293 48.6959L127.293 48.7179ZM125.478 21.7542L138.968 21.8121L138.99 17.8122L125.5 17.7543L125.478 21.7542Z" fill="#131626" mask="url(#path-7-inside-1_783_11584)"/>
<path d="M12.2268 99.267L17.9826 93.3852L12.1931 87.7218L6.43735 93.6037L12.2268 99.267ZM11.13 66.0571L11.2101 93.5133L13.2098 93.4755L13.1297 66.0193L11.13 66.0571Z" fill="#F2522E"/>
<path d="M26.8789 80.3498L13.0485 80.1366C12.2739 80.1247 11.6575 79.4886 11.6703 78.7144C11.6832 77.9371 12.3255 77.3154 13.1033 77.3274L26.9336 77.5405C27.7115 77.5525 28.3291 78.1937 28.3117 78.971C28.2942 79.7451 27.6535 80.3617 26.8789 80.3498Z" fill="#F2522E"/>
<path d="M28.6666 99.737L34.4224 93.8551L28.6329 88.1918L22.8771 94.0737L28.6666 99.737ZM27.5685 66.045L27.6499 93.9833L29.6496 93.9455L29.5682 66.0072L27.5685 66.045Z" fill="#F2522E"/>
</svg>
