<svg width="149" height="81" viewBox="0 0 149 81" fill="none" xmlns="http://www.w3.org/2000/svg">
<path d="M72.4903 58.4206L71.7489 56.5531L73.6857 57.0876L110.065 67.1267L89.1353 44.4471L88.4691 43.7252L89.1791 43.0462C89.8947 42.3619 90.9146 41.922 92.0107 41.6016C93.1253 41.2758 94.4382 41.041 95.8361 40.837C96.751 40.7035 97.7015 40.5827 98.6739 40.459C100.729 40.1977 102.882 39.924 105.003 39.492C108.114 38.8581 110.949 37.9165 112.996 36.312C114.986 34.7514 116.288 32.5206 116.288 29.1019C116.288 22.1486 110.778 15.1935 103.547 9.88888C96.3381 4.60097 87.8052 1.24094 82.3304 1.24094C61.0374 1.24094 43.8964 13.5667 39.4246 29.3741C38.3062 33.3275 38.498 35.9678 39.3294 37.7911C40.1557 39.6033 41.6989 40.7942 43.6979 41.6702C45.645 42.5235 47.9102 43.0308 50.1804 43.5392C50.2637 43.5579 50.3471 43.5766 50.4305 43.5953C52.7135 44.1071 55.0584 44.6443 56.7773 45.6197L57.8854 46.2486L57.0113 47.1755L36.9435 68.4562L80.6877 79.0682L72.4903 58.4206Z" fill="#FBC5B9" stroke="#131626" stroke-width="2"/>
<path d="M82.2949 35.018C82.2949 37.6018 79.6546 39.8684 76.1616 39.8684C72.6686 39.8684 70.0283 37.6018 70.0283 35.018C70.0283 32.4343 72.6686 30.1677 76.1616 30.1677C79.6546 30.1677 82.2949 32.4343 82.2949 35.018Z" fill="#FFFAF5" stroke="#131626"/>
<ellipse cx="76.8244" cy="35.0181" rx="3.31664" ry="2.67516" fill="#131626"/>
<path d="M69.5283 35.018C71.3903 30.9806 76.6504 25.3281 82.7949 35.018" stroke="#131626" stroke-width="3"/>
<path d="M63.7216 21.6422C63.7216 24.2259 61.0814 26.4925 57.5884 26.4925C54.0953 26.4925 51.4551 24.2259 51.4551 21.6422C51.4551 19.0584 54.0953 16.7919 57.5884 16.7919C61.0814 16.7919 63.7216 19.0584 63.7216 21.6422Z" fill="#FFFAF5" stroke="#131626"/>
<ellipse cx="58.2512" cy="21.6422" rx="3.31664" ry="2.67516" fill="#131626"/>
<path d="M50.9551 21.6422C52.817 17.6047 58.0771 11.9522 64.2216 21.6422" stroke="#131626" stroke-width="3"/>
<rect x="35.5352" y="0.740967" width="81.2526" height="79.2548" rx="10.18" stroke="#F9A997"/>
<path d="M32.9795 62.0991C15.0141 76.6368 8.45793 56.0417 7.42545 43.9268L2.00488 20.7985C5.10235 23.5518 13.3106 32.0322 21.364 43.9268C29.4174 55.8214 32.4633 48.8829 32.9795 43.9268H46.9181V62.0991C46.9181 56.2546 35.3715 60.1635 32.9795 62.0991Z" fill="#FAA554" stroke="#131626" stroke-width="2" stroke-linejoin="round"/>
<rect x="0.953125" y="21.2985" width="45.5581" height="45.3008" rx="10.18" stroke="#F9A997"/>
<rect x="0.499936" y="0.499934" width="45.5581" height="45.3008" rx="10.18" transform="matrix(1 -0.000131794 -0.000127263 1 101.457 20.9289)" stroke="#F9A997"/>
<path d="M144.829 53.9344L138.839 48.273L133.284 54.1504L139.273 59.8118L144.829 53.9344ZM101.477 55.7453L139.094 55.0417L139.019 53.0431L101.402 53.7467L101.477 55.7453Z" fill="#FAA554"/>
<path d="M120.799 54.7982L117.015 54.8031L117.033 34.8189L120.817 34.8338L120.799 54.7982Z" fill="#FAA554"/>
<path d="M144.885 33.9902L138.896 28.3287L133.34 34.2061L139.33 39.8676L144.885 33.9902ZM101.534 35.8009L139.15 35.0974L139.075 33.0989L101.458 33.8023L101.534 35.8009Z" fill="#FAA554"/>
<rect x="0.501411" y="-0.498601" width="19.7666" height="36.6147" rx="9.88328" transform="matrix(0.00282579 -0.999996 0.999996 0.00279465 102.438 54.7637)" stroke="#F9A997"/>
</svg>
