<svg width="163" height="101" viewBox="0 0 163 101" fill="none" xmlns="http://www.w3.org/2000/svg">
<path d="M126.46 54.8367C126.46 82.4052 98.378 74.3097 93.1126 81.9676L52.2622 87C44.6566 80.4361 24.97 85.0308 30.5864 54.8367C36.2028 24.6426 57.6153 1.45 83.9421 1.45C97.9831 1.45 126.46 27.2682 126.46 54.8367Z" fill="#F8C428" stroke="#131626" stroke-width="2"/>
<path d="M85.5986 21.75C85.5986 23.1495 84.81 24.4626 83.4426 25.4451C82.0759 26.4271 80.1626 27.05 78.0264 27.05C75.8901 27.05 73.9768 26.4271 72.6102 25.4451C71.2427 24.4626 70.4541 23.1495 70.4541 21.75C70.4541 20.3504 71.2427 19.0373 72.6102 18.0548C73.9768 17.0728 75.8901 16.45 78.0264 16.45C80.1626 16.45 82.0759 17.0728 83.4426 18.0548C84.81 19.0373 85.5986 20.3504 85.5986 21.75Z" fill="#D9D9D9" stroke="#131626"/>
<ellipse cx="78.834" cy="21.75" rx="4.03613" ry="2.9" fill="#131626"/>
<path d="M69.9541 21.75C72.22 17.3731 78.6212 11.2456 86.0986 21.75" stroke="#131626" stroke-width="3"/>
<mask id="path-7-inside-1_778_11563" fill="white">
<path fill-rule="evenodd" clip-rule="evenodd" d="M138.923 38.0518C139.388 38.3776 139.907 38.672 140.47 38.9291C139.912 39.0871 139.388 39.3419 138.912 39.6771L138.923 38.0518ZM138.98 29.5778C139.234 29.4039 139.503 29.2394 139.786 29.0851C139.507 28.9528 139.24 28.795 138.987 28.6142L138.98 29.5778ZM138.188 19.8121C139.806 18.1608 141.953 17.08 141.953 17.08L151.164 23.2794C151.164 23.2794 148.696 25.7587 146.109 27.602L146.156 27.6021C151.542 27.6252 162.663 33.8354 162.663 33.8354C162.663 33.8354 151.458 40.112 146.072 40.0889C145.859 40.088 145.647 40.0827 145.438 40.0732C148.733 41.8943 152.502 44.942 152.502 44.942C152.502 44.942 144.768 51.2386 141.738 51.2256C141.738 51.2256 139.863 50.2593 138.314 48.7661L124.502 48.7069L124.698 19.7543L138.188 19.8121Z"/>
</mask>
<path fill-rule="evenodd" clip-rule="evenodd" d="M138.923 38.0518C139.388 38.3776 139.907 38.672 140.47 38.9291C139.912 39.0871 139.388 39.3419 138.912 39.6771L138.923 38.0518ZM138.98 29.5778C139.234 29.4039 139.503 29.2394 139.786 29.0851C139.507 28.9528 139.24 28.795 138.987 28.6142L138.98 29.5778ZM138.188 19.8121C139.806 18.1608 141.953 17.08 141.953 17.08L151.164 23.2794C151.164 23.2794 148.696 25.7587 146.109 27.602L146.156 27.6021C151.542 27.6252 162.663 33.8354 162.663 33.8354C162.663 33.8354 151.458 40.112 146.072 40.0889C145.859 40.088 145.647 40.0827 145.438 40.0732C148.733 41.8943 152.502 44.942 152.502 44.942C152.502 44.942 144.768 51.2386 141.738 51.2256C141.738 51.2256 139.863 50.2593 138.314 48.7661L124.502 48.7069L124.698 19.7543L138.188 19.8121Z" fill="#F2522E"/>
<path d="M140.47 38.9291L141.013 40.8532L146.25 39.3691L141.303 37.1096L140.47 38.9291ZM138.923 38.0518L140.071 36.4129L136.949 34.2267L136.923 38.0407L138.923 38.0518ZM138.912 39.6771L136.912 39.666L136.886 43.547L140.062 41.3122L138.912 39.6771ZM138.98 29.5778L136.98 29.5668L136.954 33.3885L140.109 31.2273L138.98 29.5778ZM139.786 29.0851L140.742 30.841L144.195 28.9595L140.645 27.2775L139.786 29.0851ZM138.987 28.6142L140.15 26.9858L137.013 24.7468L136.987 28.6032L138.987 28.6142ZM138.188 19.8121L138.177 21.8121L139.023 21.8157L139.616 21.2109L138.188 19.8121ZM141.953 17.08L143.071 15.4204L142.101 14.7676L141.056 15.2938L141.953 17.08ZM151.164 23.2794L152.581 24.6895L154.291 22.9716L152.282 21.6198L151.164 23.2794ZM146.109 27.602L144.95 25.9737L139.882 29.5848L146.101 29.602L146.109 27.602ZM146.156 27.6021L146.167 25.6022L146.164 25.6022L146.156 27.6021ZM162.663 33.8354L163.639 35.58L166.76 33.8315L163.64 32.089L162.663 33.8354ZM146.072 40.0889L146.061 42.0888L146.061 42.0888L146.072 40.0889ZM145.438 40.0732L145.531 38.0752L144.469 41.8238L145.438 40.0732ZM152.502 44.942L153.764 46.4924L155.677 44.9351L153.761 43.3862L152.502 44.942ZM141.738 51.2256L140.82 53.0036L141.247 53.2235L141.727 53.2256L141.738 51.2256ZM138.314 48.7661L139.703 47.3253L139.127 46.7696L138.325 46.7662L138.314 48.7661ZM124.502 48.7069L122.502 48.6959L122.489 50.6983L124.491 50.7069L124.502 48.7069ZM124.698 19.7543L124.709 17.7543L122.711 17.7457L122.698 19.7432L124.698 19.7543ZM141.303 37.1096C140.841 36.8989 140.429 36.6637 140.071 36.4129L137.774 39.6906C138.347 40.0916 138.973 40.4451 139.637 40.7485L141.303 37.1096ZM140.062 41.3122C140.363 41.1003 140.683 40.9467 141.013 40.8532L139.927 37.0049C139.142 37.2274 138.414 37.5835 137.762 38.0419L140.062 41.3122ZM136.923 38.0407L136.912 39.666L140.912 39.6881L140.923 38.0628L136.923 38.0407ZM140.109 31.2273C140.304 31.0936 140.515 30.9643 140.742 30.841L138.831 27.3292C138.491 27.5145 138.164 27.7143 137.851 27.9283L140.109 31.2273ZM140.645 27.2775C140.475 27.1972 140.31 27.0999 140.15 26.9858L137.823 30.2426C138.17 30.4901 138.539 30.7084 138.928 30.8926L140.645 27.2775ZM136.987 28.6032L136.98 29.5668L140.98 29.5889L140.987 28.6253L136.987 28.6032ZM139.616 21.2109C140.281 20.5315 141.088 19.9403 141.76 19.5073C142.089 19.2948 142.372 19.1292 142.569 19.0187C142.667 18.9636 142.743 18.9226 142.792 18.8968C142.817 18.8839 142.834 18.8748 142.844 18.8697C142.849 18.8671 142.852 18.8655 142.853 18.865C142.854 18.8647 142.854 18.8646 142.853 18.8649C142.853 18.865 142.853 18.8651 142.852 18.8654C142.852 18.8655 142.852 18.8656 142.851 18.8658C142.851 18.8659 142.851 18.866 142.851 18.866C142.851 18.8661 142.85 18.8663 141.953 17.08C141.056 15.2938 141.055 15.2939 141.055 15.2941C141.055 15.2941 141.055 15.2943 141.054 15.2944C141.054 15.2946 141.054 15.2949 141.053 15.2951C141.052 15.2956 141.051 15.2962 141.05 15.2968C141.047 15.2981 141.044 15.2996 141.041 15.3014C141.033 15.305 141.024 15.3097 141.013 15.3155C140.991 15.327 140.961 15.3428 140.923 15.3626C140.848 15.4024 140.744 15.4588 140.615 15.5308C140.359 15.6745 140.004 15.8823 139.595 16.1464C138.788 16.6666 137.712 17.4414 136.76 18.4133L139.616 21.2109ZM140.835 18.7397L150.046 24.939L152.282 21.6198L143.071 15.4204L140.835 18.7397ZM151.164 23.2794C149.748 21.8693 149.748 21.8692 149.748 21.8691C149.748 21.8691 149.748 21.869 149.748 21.869C149.748 21.8689 149.748 21.8689 149.748 21.8689C149.748 21.8689 149.748 21.8691 149.748 21.8694C149.747 21.87 149.746 21.8712 149.744 21.873C149.74 21.8766 149.734 21.8825 149.726 21.8906C149.71 21.9068 149.685 21.9318 149.651 21.965C149.584 22.0312 149.483 22.1297 149.353 22.2545C149.093 22.5041 148.719 22.8575 148.267 23.2667C147.354 24.0916 146.155 25.1153 144.95 25.9737L147.268 29.2303C148.651 28.2454 149.979 27.1078 150.947 26.2322C151.435 25.7912 151.839 25.4095 152.123 25.1367C152.265 25.0002 152.377 24.8906 152.455 24.8141C152.494 24.7758 152.524 24.7458 152.545 24.7248C152.556 24.7143 152.564 24.706 152.57 24.7001C152.573 24.6971 152.576 24.6948 152.577 24.693C152.578 24.6921 152.579 24.6914 152.58 24.6908C152.58 24.6905 152.58 24.6903 152.58 24.69C152.58 24.6899 152.581 24.6898 152.581 24.6897C152.581 24.6896 152.581 24.6895 151.164 23.2794ZM146.101 29.602L146.148 29.6021L146.164 25.6022L146.117 25.602L146.101 29.602ZM146.145 29.6021C147.176 29.6065 148.643 29.9207 150.387 30.4878C152.093 31.0428 153.916 31.79 155.606 32.5512C157.291 33.3101 158.816 34.0703 159.921 34.6415C160.473 34.9267 160.918 35.1638 161.223 35.3287C161.376 35.4111 161.493 35.4754 161.572 35.5186C161.611 35.5402 161.641 35.5566 161.66 35.5672C161.67 35.5726 161.677 35.5765 161.681 35.5789C161.683 35.5802 161.685 35.581 161.686 35.5815C161.686 35.5818 161.687 35.5819 161.687 35.582C161.687 35.582 161.687 35.582 161.687 35.582C161.687 35.5819 161.686 35.5819 162.663 33.8354C163.64 32.089 163.64 32.0888 163.64 32.0887C163.639 32.0886 163.639 32.0884 163.639 32.0883C163.638 32.088 163.637 32.0875 163.637 32.087C163.635 32.086 163.632 32.0846 163.629 32.0829C163.623 32.0794 163.614 32.0744 163.602 32.068C163.579 32.0551 163.545 32.0366 163.502 32.0127C163.415 31.9649 163.289 31.8958 163.127 31.8084C162.803 31.6336 162.337 31.3853 161.762 31.0879C160.613 30.494 159.021 29.7002 157.253 28.9037C155.489 28.1094 153.522 27.2998 151.628 26.6838C149.772 26.08 147.83 25.6093 146.167 25.6022L146.145 29.6021ZM162.663 33.8354C161.687 32.0908 161.688 32.0907 161.688 32.0907C161.688 32.0907 161.688 32.0907 161.688 32.0907C161.688 32.0908 161.687 32.0909 161.687 32.0912C161.686 32.0917 161.684 32.0925 161.682 32.0938C161.678 32.0962 161.671 32.1002 161.661 32.1056C161.642 32.1164 161.612 32.1328 161.572 32.1547C161.493 32.1983 161.374 32.2633 161.221 32.3466C160.913 32.5131 160.465 32.7525 159.91 33.0403C158.797 33.6169 157.262 34.3836 155.567 35.1477C153.867 35.914 152.035 36.6646 150.323 37.2188C148.572 37.7855 147.106 38.0933 146.083 38.0889L146.061 42.0888C147.731 42.096 149.686 41.6279 151.55 41.0242C153.454 40.4081 155.433 39.5939 157.207 38.7939C158.987 37.9917 160.59 37.1908 161.747 36.5912C162.326 36.291 162.796 36.0402 163.122 35.8635C163.285 35.7752 163.412 35.7054 163.5 35.6571C163.544 35.633 163.578 35.6142 163.601 35.6012C163.613 35.5948 163.622 35.5897 163.628 35.5862C163.631 35.5844 163.634 35.583 163.636 35.5819C163.636 35.5814 163.637 35.581 163.638 35.5807C163.638 35.5805 163.638 35.5804 163.639 35.5803C163.639 35.5801 163.639 35.58 162.663 33.8354ZM146.083 38.0889C145.897 38.0881 145.713 38.0835 145.531 38.0752L145.345 42.0711C145.582 42.0818 145.821 42.0878 146.061 42.0888L146.083 38.0889ZM144.469 41.8238C146.007 42.6741 147.694 43.8339 149.024 44.8058C149.683 45.2871 150.242 45.7131 150.635 46.018C150.831 46.1703 150.985 46.292 151.09 46.3748C151.142 46.4162 151.181 46.4479 151.207 46.4687C151.22 46.4792 151.23 46.4869 151.236 46.4918C151.239 46.4943 151.241 46.496 151.243 46.497C151.243 46.4975 151.244 46.4979 151.244 46.498C151.244 46.4981 151.244 46.4981 151.244 46.4981C151.244 46.4981 151.244 46.498 151.244 46.498C151.244 46.498 151.244 46.4979 152.502 44.942C153.761 43.3862 153.761 43.3861 153.761 43.386C153.761 43.3859 153.761 43.3858 153.76 43.3857C153.76 43.3855 153.76 43.3852 153.759 43.385C153.759 43.3844 153.758 43.3836 153.757 43.3826C153.754 43.3807 153.751 43.378 153.747 43.3747C153.738 43.3679 153.726 43.3583 153.711 43.346C153.68 43.3213 153.636 43.2857 153.578 43.2402C153.464 43.1493 153.298 43.0186 153.089 42.8567C152.672 42.5332 152.083 42.0835 151.387 41.5752C150.008 40.5679 148.163 39.2933 146.407 38.3225L144.469 41.8238ZM152.502 44.942C151.241 43.3917 151.241 43.3916 151.241 43.3915C151.241 43.3915 151.241 43.3915 151.241 43.3915C151.241 43.3915 151.241 43.3916 151.241 43.3919C151.24 43.3923 151.239 43.3931 151.238 43.3943C151.235 43.3967 151.23 43.4005 151.223 43.4058C151.21 43.4164 151.19 43.4327 151.163 43.4544C151.109 43.4976 151.028 43.5623 150.924 43.6452C150.714 43.8111 150.409 44.0498 150.034 44.337C149.28 44.9126 148.25 45.676 147.133 46.4354C146.009 47.1997 144.836 47.9341 143.79 48.4688C142.648 49.0524 141.979 49.2267 141.749 49.2257L141.727 53.2256C143.013 53.2311 144.446 52.6232 145.607 52.0299C146.863 51.3876 148.192 50.5502 149.38 49.742C150.576 48.9289 151.668 48.119 152.459 47.5144C152.856 47.2114 153.179 46.9583 153.405 46.7799C153.517 46.6907 153.606 46.6201 153.666 46.5711C153.697 46.5467 153.72 46.5276 153.737 46.5144C153.745 46.5077 153.751 46.5026 153.756 46.4989C153.758 46.4971 153.76 46.4956 153.761 46.4945C153.762 46.494 153.763 46.4935 153.763 46.4932C153.763 46.493 153.763 46.4928 153.764 46.4927C153.764 46.4925 153.764 46.4924 152.502 44.942ZM141.738 51.2256C142.656 49.4477 142.657 49.4478 142.657 49.4479C142.657 49.4479 142.657 49.4481 142.657 49.4481C142.658 49.4483 142.658 49.4484 142.658 49.4485C142.659 49.4488 142.659 49.4489 142.659 49.4491C142.66 49.4493 142.66 49.4493 142.659 49.4491C142.658 49.4487 142.656 49.4474 142.652 49.4452C142.643 49.4407 142.628 49.4328 142.607 49.4214C142.565 49.3987 142.499 49.3623 142.413 49.3132C142.24 49.2148 141.99 49.0667 141.695 48.8759C141.095 48.4884 140.353 47.9519 139.703 47.3253L136.925 50.207C137.824 51.0735 138.795 51.7668 139.52 52.2358C139.887 52.4732 140.202 52.66 140.43 52.7894C140.543 52.8542 140.636 52.9051 140.702 52.941C140.736 52.9589 140.762 52.9732 140.782 52.9837C140.792 52.9889 140.8 52.9932 140.807 52.9965C140.81 52.9982 140.813 52.9996 140.815 53.0008C140.816 53.0014 140.817 53.0019 140.818 53.0024C140.818 53.0026 140.819 53.0029 140.819 53.0031C140.819 53.0032 140.82 53.0033 140.82 53.0034C140.82 53.0035 140.82 53.0036 141.738 51.2256ZM138.325 46.7662L124.513 46.7069L124.491 50.7069L138.303 50.7661L138.325 46.7662ZM126.502 48.7179L126.698 19.7653L122.698 19.7432L122.502 48.6959L126.502 48.7179ZM124.687 21.7542L138.177 21.8121L138.199 17.8122L124.709 17.7543L124.687 21.7542Z" fill="#131626" mask="url(#path-7-inside-1_778_11563)"/>
<path d="M11.4368 99.2671L17.1925 93.3853L11.4031 87.7219L5.64731 93.6038L11.4368 99.2671ZM10.34 66.0573L10.4201 93.5135L12.4198 93.4756L12.3397 66.0194L10.34 66.0573Z" fill="#F2522E"/>
<path d="M26.0889 80.3499L12.2585 80.1368C11.4838 80.1248 10.8674 79.4887 10.8803 78.7145C10.8932 77.9372 11.5354 77.3156 12.3132 77.3275L26.1436 77.5407C26.9215 77.5526 27.5391 78.1938 27.5216 78.9711C27.5042 79.7452 26.8634 80.3618 26.0889 80.3499Z" fill="#F2522E"/>
<path d="M27.8765 99.7371L33.6323 93.8552L27.8429 88.1919L22.0871 94.0738L27.8765 99.7371ZM26.7785 66.0452L26.8599 93.9834L28.8596 93.9456L28.7782 66.0073L26.7785 66.0452Z" fill="#F2522E"/>
</svg>
