<svg width="116" height="117" viewBox="0 0 116 117" fill="none" xmlns="http://www.w3.org/2000/svg">
<path d="M114.036 74.5L93.4759 116H50.9975L30.3789 74.5L78.8207 34.3833L114.036 74.5Z" fill="#F2522E" stroke="#131626" stroke-width="2" stroke-linejoin="round"/>
<path d="M80.2142 84.1834C80.2142 86.8549 77.3865 89.2167 73.6247 89.2167C69.863 89.2167 67.0352 86.8549 67.0352 84.1834C67.0352 81.5118 69.863 79.15 73.6247 79.15C77.3865 79.15 80.2142 81.5118 80.2142 84.1834Z" fill="#D9D9D9" stroke="#131626"/>
<ellipse cx="74.3338" cy="84.1834" rx="3.54477" ry="2.76667" fill="#131626"/>
<path d="M66.5352 84.1834C68.5252 80.0078 74.1471 74.162 80.7142 84.1834" stroke="#131626" stroke-width="3"/>
<rect x="30.1699" y="33.5" width="84.0746" height="82" rx="10.18" stroke="#F2522E"/>
<rect x="62.7119" y="2.01416" width="29.0263" height="29" rx="10.18" stroke="#F2522E"/>
<path d="M83.2441 1.6081L77.6154 7.62681L83.5233 13.1517L89.1519 7.13297L83.2441 1.6081ZM84.9688 31.5728L84.3828 7.33712L82.3846 7.42266L82.9706 31.6584L84.9688 31.5728Z" fill="#F2522E"/>
<path d="M83.9368 19.1411L83.9531 21.5791L70.9933 21.637L70.9899 19.1989L83.9368 19.1411Z" fill="#F2522E"/>
<path d="M70.31 1.64119L64.6815 7.65973L70.5894 13.1848L76.218 7.16623L70.31 1.64119ZM72.0352 31.6059L71.4488 7.37024L69.4506 7.45572L70.037 31.6914L72.0352 31.6059Z" fill="#F2522E"/>
<rect x="-0.501281" y="-0.498718" width="12.4672" height="23.2374" rx="6.23358" transform="matrix(-1 0.00255538 -0.00255984 -0.999992 82.9747 30.6194)" stroke="#F2522E"/>
<mask id="path-12-inside-1_783_11606" fill="white">
<path fill-rule="evenodd" clip-rule="evenodd" d="M0.644531 74.0873L10.8082 69.4089L15.89 65.6662L15.89 70.6667L23.5128 64V71.569H24.148H27.9593H30.5003V76.4309H27.9593H24.148H23.5128V84L15.89 77.3333V82.5083L10.8082 78.7656L0.644531 74.0873Z"/>
</mask>
<path fill-rule="evenodd" clip-rule="evenodd" d="M0.644531 74.0873L10.8082 69.4089L15.89 65.6662L15.89 70.6667L23.5128 64V71.569H24.148H27.9593H30.5003V76.4309H27.9593H24.148H23.5128V84L15.89 77.3333V82.5083L10.8082 78.7656L0.644531 74.0873Z" fill="#F2522E"/>
<path d="M10.8082 69.4089L11.6445 71.2257L11.8299 71.1403L11.9942 71.0193L10.8082 69.4089ZM0.644531 74.0873L-0.191735 72.2705L-4.13864 74.0873L-0.191735 75.904L0.644531 74.0873ZM15.89 65.6662H17.89V61.7094L14.704 64.0558L15.89 65.6662ZM15.89 70.6667H13.89V75.0728L17.2067 72.1721L15.89 70.6667ZM23.5128 64H25.5128V59.5939L22.1961 62.4945L23.5128 64ZM23.5128 71.569H21.5128V73.569H23.5128V71.569ZM30.5003 71.569H32.5003V69.569H30.5003V71.569ZM30.5003 76.4309V78.4309H32.5003V76.4309H30.5003ZM23.5128 76.4309V74.4309H21.5128V76.4309H23.5128ZM23.5128 84L22.1961 85.5055L25.5128 88.4061V84H23.5128ZM15.89 77.3333L17.2067 75.8279L13.89 72.9272V77.3333H15.89ZM15.89 82.5083L14.704 84.1187L17.89 86.4652V82.5083H15.89ZM10.8082 78.7656L11.9942 77.1552L11.8299 77.0342L11.6445 76.9489L10.8082 78.7656ZM9.97192 67.5921L-0.191735 72.2705L1.4808 75.904L11.6445 71.2257L9.97192 67.5921ZM14.704 64.0558L9.62216 67.7985L11.9942 71.0193L17.076 67.2766L14.704 64.0558ZM17.89 70.6667V65.6662H13.89L13.89 70.6667H17.89ZM22.1961 62.4945L14.5734 69.1612L17.2067 72.1721L24.8294 65.5055L22.1961 62.4945ZM25.5128 71.569V64H21.5128V71.569H25.5128ZM24.148 69.569H23.5128V73.569H24.148V69.569ZM27.9593 69.569H24.148V73.569H27.9593V69.569ZM30.5003 69.569H27.9593V73.569H30.5003V69.569ZM32.5003 76.4309V71.569H28.5003V76.4309H32.5003ZM27.9593 78.4309H30.5003V74.4309H27.9593V78.4309ZM24.148 78.4309H27.9593V74.4309H24.148V78.4309ZM23.5128 78.4309H24.148V74.4309H23.5128V78.4309ZM25.5128 84V76.4309H21.5128V84H25.5128ZM14.5734 78.8388L22.1961 85.5055L24.8294 82.4945L17.2067 75.8279L14.5734 78.8388ZM17.89 82.5083V77.3333H13.89V82.5083H17.89ZM9.62216 80.376L14.704 84.1187L17.076 80.8979L11.9942 77.1552L9.62216 80.376ZM-0.191735 75.904L9.97192 80.5824L11.6445 76.9489L1.4808 72.2705L-0.191735 75.904Z" fill="#131626" mask="url(#path-12-inside-1_783_11606)"/>
<rect x="1.14453" y="64.5" width="28.8557" height="19" rx="9.5" stroke="#F2522E"/>
</svg>
