<svg width="115" height="117" viewBox="0 0 115 117" fill="none" xmlns="http://www.w3.org/2000/svg">
<path d="M113.616 74.5L93.0559 116H50.5776L29.959 74.5L78.4008 34.3833L113.616 74.5Z" fill="#F2522E" stroke="#131626" stroke-width="2" stroke-linejoin="round"/>
<path d="M79.7943 84.1834C79.7943 86.8549 76.9665 89.2167 73.2048 89.2167C69.443 89.2167 66.6152 86.8549 66.6152 84.1834C66.6152 81.5118 69.443 79.15 73.2048 79.15C76.9665 79.15 79.7943 81.5118 79.7943 84.1834Z" fill="#D9D9D9" stroke="#131626"/>
<ellipse cx="73.9139" cy="84.1834" rx="3.54477" ry="2.76667" fill="#131626"/>
<path d="M66.1152 84.1834C68.1053 80.0078 73.7272 74.162 80.2943 84.1834" stroke="#131626" stroke-width="3"/>
<rect x="29.75" y="33.5" width="84.0746" height="82" rx="10.18" stroke="#F2522E"/>
<rect x="62.293" y="2.01416" width="29.0263" height="29" rx="10.18" stroke="#F2522E"/>
<path d="M82.8242 1.6081L77.1955 7.62681L83.1033 13.1517L88.732 7.13297L82.8242 1.6081ZM84.5489 31.5728L83.9629 7.33712L81.9647 7.42266L82.5507 31.6584L84.5489 31.5728Z" fill="#F2522E"/>
<path d="M83.5168 19.1411L83.5331 21.5791L70.5734 21.637L70.57 19.1989L83.5168 19.1411Z" fill="#F2522E"/>
<path d="M69.8901 1.64119L64.2615 7.65973L70.1694 13.1848L75.798 7.16623L69.8901 1.64119ZM71.6153 31.6059L71.0289 7.37024L69.0307 7.45572L69.6171 31.6914L71.6153 31.6059Z" fill="#F2522E"/>
<rect x="-0.501281" y="-0.498718" width="12.4672" height="23.2374" rx="6.23358" transform="matrix(-1 0.00255538 -0.00255984 -0.999992 82.5548 30.6194)" stroke="#F2522E"/>
<mask id="path-12-inside-1_778_11705" fill="white">
<path fill-rule="evenodd" clip-rule="evenodd" d="M0.224609 74.0873L10.3883 69.4089L15.4701 65.6662L15.4701 70.6667L23.0928 64V71.569H23.7281H27.5394H30.0803V76.4309H27.5394H23.7281H23.0928V84L15.4701 77.3333V82.5083L10.3883 78.7656L0.224609 74.0873Z"/>
</mask>
<path fill-rule="evenodd" clip-rule="evenodd" d="M0.224609 74.0873L10.3883 69.4089L15.4701 65.6662L15.4701 70.6667L23.0928 64V71.569H23.7281H27.5394H30.0803V76.4309H27.5394H23.7281H23.0928V84L15.4701 77.3333V82.5083L10.3883 78.7656L0.224609 74.0873Z" fill="#F2522E"/>
<path d="M10.3883 69.4089L11.2245 71.2257L11.4099 71.1403L11.5743 71.0193L10.3883 69.4089ZM0.224609 74.0873L-0.611657 72.2705L-4.55856 74.0873L-0.611657 75.904L0.224609 74.0873ZM15.4701 65.6662H17.4701V61.7094L14.2841 64.0558L15.4701 65.6662ZM15.4701 70.6667H13.4701V75.0728L16.7867 72.1721L15.4701 70.6667ZM23.0928 64H25.0928V59.5939L21.7762 62.4945L23.0928 64ZM23.0928 71.569H21.0928V73.569H23.0928V71.569ZM30.0803 71.569H32.0803V69.569H30.0803V71.569ZM30.0803 76.4309V78.4309H32.0803V76.4309H30.0803ZM23.0928 76.4309V74.4309H21.0928V76.4309H23.0928ZM23.0928 84L21.7762 85.5055L25.0928 88.4061V84H23.0928ZM15.4701 77.3333L16.7867 75.8279L13.4701 72.9272V77.3333H15.4701ZM15.4701 82.5083L14.2841 84.1187L17.4701 86.4652V82.5083H15.4701ZM10.3883 78.7656L11.5743 77.1552L11.4099 77.0342L11.2245 76.9489L10.3883 78.7656ZM9.552 67.5921L-0.611657 72.2705L1.06088 75.904L11.2245 71.2257L9.552 67.5921ZM14.2841 64.0558L9.20224 67.7985L11.5743 71.0193L16.6561 67.2766L14.2841 64.0558ZM17.4701 70.6667V65.6662H13.4701L13.4701 70.6667H17.4701ZM21.7762 62.4945L14.1534 69.1612L16.7867 72.1721L24.4095 65.5055L21.7762 62.4945ZM25.0928 71.569V64H21.0928V71.569H25.0928ZM23.7281 69.569H23.0928V73.569H23.7281V69.569ZM27.5394 69.569H23.7281V73.569H27.5394V69.569ZM30.0803 69.569H27.5394V73.569H30.0803V69.569ZM32.0803 76.4309V71.569H28.0803V76.4309H32.0803ZM27.5394 78.4309H30.0803V74.4309H27.5394V78.4309ZM23.7281 78.4309H27.5394V74.4309H23.7281V78.4309ZM23.0928 78.4309H23.7281V74.4309H23.0928V78.4309ZM25.0928 84V76.4309H21.0928V84H25.0928ZM14.1534 78.8388L21.7762 85.5055L24.4095 82.4945L16.7867 75.8279L14.1534 78.8388ZM17.4701 82.5083V77.3333H13.4701V82.5083H17.4701ZM9.20224 80.376L14.2841 84.1187L16.6561 80.8979L11.5743 77.1552L9.20224 80.376ZM-0.611657 75.904L9.552 80.5824L11.2245 76.9489L1.06088 72.2705L-0.611657 75.904Z" fill="#131626" mask="url(#path-12-inside-1_778_11705)"/>
<rect x="0.724609" y="64.5" width="28.8557" height="19" rx="9.5" stroke="#F2522E"/>
</svg>
