<svg width="149" height="81" viewBox="0 0 149 81" fill="none" xmlns="http://www.w3.org/2000/svg">
<path d="M36.9106 68.867L80.6666 79.4791L72.4671 58.8314L71.7255 56.964L73.6624 57.4984L110.052 67.5375L89.1164 44.858L88.4499 44.136L89.1602 43.4569C89.876 42.7726 90.8961 42.3327 91.9924 42.0123C93.1072 41.6865 94.4205 41.4518 95.8188 41.2478C96.7338 41.1143 97.6846 40.9934 98.6572 40.8698C100.713 40.6085 102.867 40.3348 104.988 39.9027C108.099 39.2689 110.936 38.3272 112.983 36.7227C114.974 35.162 116.276 32.9313 116.276 29.5127C116.276 22.5595 110.765 15.6044 103.532 10.2997C96.3211 5.0118 87.7858 1.6517 82.3095 1.6517C61.0107 1.6517 43.8652 13.9776 39.3923 29.7849C38.2736 33.7383 38.4654 36.3786 39.297 38.2018C40.1236 40.014 41.6672 41.2049 43.6667 42.081C45.6144 42.9343 47.8801 43.4416 50.1509 43.95C50.2343 43.9687 50.3178 43.9873 50.4012 44.006C52.6848 44.5179 55.0303 45.0551 56.7495 46.0304L57.858 46.6593L56.9835 47.5864L36.9106 68.867Z" fill="#FBC5B9" stroke="#131626" stroke-width="2"/>
<path d="M82.2739 35.4288C82.2739 38.0125 79.633 40.2791 76.1389 40.2791C72.6448 40.2791 70.0039 38.0125 70.0039 35.4288C70.0039 32.8452 72.6448 30.5785 76.1389 30.5785C79.633 30.5785 82.2739 32.8452 82.2739 35.4288Z" fill="#FFFAF5" stroke="#131626"/>
<ellipse cx="76.8028" cy="35.4288" rx="3.3175" ry="2.67516" fill="#131626"/>
<path d="M69.5039 35.4288C71.3664 31.3913 76.6278 25.7389 82.7739 35.4288" stroke="#131626" stroke-width="3"/>
<path d="M63.6958 22.053C63.6958 24.6366 61.0549 26.9033 57.5608 26.9033C54.0667 26.9033 51.4258 24.6366 51.4258 22.053C51.4258 19.4693 54.0667 17.2026 57.5608 17.2026C61.0549 17.2026 63.6958 19.4693 63.6958 22.053Z" fill="#FFFAF5" stroke="#131626"/>
<ellipse cx="58.2247" cy="22.053" rx="3.3175" ry="2.67516" fill="#131626"/>
<path d="M50.9258 22.053C52.7882 18.0155 58.0497 12.363 64.1958 22.053" stroke="#131626" stroke-width="3"/>
<rect x="35.502" y="1.15173" width="81.2739" height="79.2548" rx="10.18" stroke="#F9A997"/>
<path d="M32.9475 62.5099C14.9775 77.0476 8.41957 56.4524 7.38681 44.3376L1.96484 21.2092C5.06311 23.9626 13.2735 32.443 21.329 44.3376C29.3845 56.2321 32.4312 49.2936 32.9475 44.3376H46.8897V62.5099C46.8897 56.6654 35.3401 60.5743 32.9475 62.5099Z" fill="#FAA554" stroke="#131626" stroke-width="2" stroke-linejoin="round"/>
<rect x="0.912109" y="21.7092" width="45.5701" height="45.3008" rx="10.18" stroke="#F9A997"/>
<rect x="0.500001" y="0.500001" width="45.5701" height="45.3008" rx="10.18" transform="matrix(1 2.44914e-06 2.47847e-06 1 101.442 21.3396)" stroke="#F9A997"/>
<path d="M144.824 54.3451L138.834 48.6836L133.279 54.561L139.269 60.2224L144.824 54.3451ZM101.462 56.1559L139.089 55.4523L139.014 53.4537L101.387 54.1573L101.462 56.1559Z" fill="#FAA554"/>
<path d="M120.79 55.2088L117.005 55.2137L117.023 35.2295L120.808 35.2444L120.79 55.2088Z" fill="#FAA554"/>
<path d="M144.88 34.4009L138.891 28.7394L133.335 34.6167L139.325 40.2782L144.88 34.4009ZM101.519 36.2116L139.146 35.5081L139.07 33.5095L101.444 34.213L101.519 36.2116Z" fill="#FAA554"/>
<rect x="0.501411" y="-0.498601" width="19.7666" height="36.6244" rx="9.88328" transform="matrix(0.00282652 -0.999996 0.999996 0.00279393 102.423 55.1744)" stroke="#F9A997"/>
</svg>
