<svg width="153" height="103" viewBox="0 0 153 103" fill="none" xmlns="http://www.w3.org/2000/svg">
<path d="M119.882 49.5C119.882 76.2817 98.0749 98 71.1659 98C44.2569 98 22.4502 76.2817 22.4502 49.5C22.4502 22.7183 44.2569 1 71.1659 1C98.0749 1 119.882 22.7183 119.882 49.5Z" fill="#FAA554" stroke="#131626" stroke-width="2"/>
<path d="M78.9518 52.8846C78.9518 58.2142 75.3827 62.3693 71.1658 62.3693C66.949 62.3693 63.3799 58.2142 63.3799 52.8846C63.3799 47.5551 66.949 43.4 71.1658 43.4C75.3827 43.4 78.9518 47.5551 78.9518 52.8846Z" fill="#D9D9D9" stroke="#131626"/>
<ellipse cx="71.9945" cy="52.8846" rx="4.14297" ry="4.99231" fill="#131626"/>
<path d="M62.8799 52.8846C65.2058 45.35 71.7764 34.8015 79.4518 52.8846" stroke="#131626" stroke-width="3"/>
<mask id="path-7-inside-1_778_11730" fill="white">
<path fill-rule="evenodd" clip-rule="evenodd" d="M133.884 53.4911C134.25 53.7763 134.657 54.0338 135.098 54.2588C134.661 54.3948 134.25 54.6156 133.876 54.9068L133.884 53.4911ZM133.924 46.0392C134.122 45.8881 134.332 45.745 134.553 45.6109C134.335 45.4954 134.127 45.3577 133.929 45.2002L133.924 46.0392ZM133.287 37.4761C134.556 36.0235 136.246 35.0727 136.246 35.0727L143.478 40.5191C143.478 40.5191 141.538 42.6994 139.506 44.317L139.542 44.3171C143.768 44.3399 152.496 49.794 152.496 49.794C152.496 49.794 143.709 55.2963 139.483 55.2735C139.308 55.2726 139.134 55.2674 138.961 55.2582C141.552 56.8568 144.527 59.5476 144.527 59.5476C144.527 59.5476 138.462 65.0712 136.084 65.0585C136.084 65.0585 134.616 64.2114 133.4 62.9026L122.564 62.8444L122.701 37.4193L133.287 37.4761Z"/>
</mask>
<path fill-rule="evenodd" clip-rule="evenodd" d="M133.884 53.4911C134.25 53.7763 134.657 54.0338 135.098 54.2588C134.661 54.3948 134.25 54.6156 133.876 54.9068L133.884 53.4911ZM133.924 46.0392C134.122 45.8881 134.332 45.745 134.553 45.6109C134.335 45.4954 134.127 45.3577 133.929 45.2002L133.924 46.0392ZM133.287 37.4761C134.556 36.0235 136.246 35.0727 136.246 35.0727L143.478 40.5191C143.478 40.5191 141.538 42.6994 139.506 44.317L139.542 44.3171C143.768 44.3399 152.496 49.794 152.496 49.794C152.496 49.794 143.709 55.2963 139.483 55.2735C139.308 55.2726 139.134 55.2674 138.961 55.2582C141.552 56.8568 144.527 59.5476 144.527 59.5476C144.527 59.5476 138.462 65.0712 136.084 65.0585C136.084 65.0585 134.616 64.2114 133.4 62.9026L122.564 62.8444L122.701 37.4193L133.287 37.4761Z" fill="#F2522E"/>
<path d="M135.098 54.2588L135.693 56.1685L140.387 54.7077L136.006 52.4766L135.098 54.2588ZM133.884 53.4911L135.114 51.9141L131.906 49.4118L131.884 53.4804L133.884 53.4911ZM133.876 54.9068L131.876 54.8961L131.854 59.0176L135.106 56.4845L133.876 54.9068ZM133.924 46.0392L131.924 46.0285L131.902 50.0971L135.137 47.6294L133.924 46.0392ZM134.553 45.6109L135.592 47.3202L138.6 45.4925L135.49 43.8438L134.553 45.6109ZM133.929 45.2002L135.175 43.6357L131.951 41.068L131.929 45.1894L133.929 45.2002ZM133.287 37.4761L133.276 39.4761L134.191 39.481L134.793 38.7922L133.287 37.4761ZM136.246 35.0727L137.449 33.4751L136.405 32.6886L135.265 33.3297L136.246 35.0727ZM143.478 40.5191L144.972 41.8485L146.415 40.227L144.681 38.9214L143.478 40.5191ZM139.506 44.317L138.261 42.7523L133.81 46.2959L139.499 46.317L139.506 44.317ZM139.542 44.3171L139.553 42.3172L139.55 42.3172L139.542 44.3171ZM152.496 49.794L153.558 51.4891L156.268 49.7923L153.556 48.0979L152.496 49.794ZM138.961 55.2582L139.068 53.261L137.911 56.9603L138.961 55.2582ZM144.527 59.5476L145.874 61.0263L147.503 59.5425L145.869 58.0643L144.527 59.5476ZM136.084 65.0585L135.085 66.7909L135.544 67.0556L136.074 67.0585L136.084 65.0585ZM133.4 62.9026L134.866 61.5415L134.277 60.9073L133.411 60.9026L133.4 62.9026ZM122.564 62.8444L120.564 62.8336L120.553 64.8336L122.553 64.8444L122.564 62.8444ZM122.701 37.4193L122.712 35.4193L120.712 35.4086L120.701 37.4085L122.701 37.4193ZM136.006 52.4766C135.671 52.306 135.373 52.116 135.114 51.9141L132.654 55.0681C133.126 55.4366 133.642 55.7617 134.191 56.0409L136.006 52.4766ZM135.106 56.4845C135.305 56.3291 135.504 56.2272 135.693 56.1685L134.504 52.3491C133.819 52.5623 133.195 52.9021 132.647 53.3291L135.106 56.4845ZM131.884 53.4804L131.876 54.8961L135.876 54.9176L135.884 53.5019L131.884 53.4804ZM135.137 47.6294C135.277 47.5225 135.429 47.419 135.592 47.3202L133.515 43.9016C133.236 44.0711 132.967 44.2537 132.711 44.4491L135.137 47.6294ZM135.49 43.8438C135.386 43.7888 135.28 43.7199 135.175 43.6357L132.683 46.7646C132.973 46.9956 133.285 47.202 133.616 47.378L135.49 43.8438ZM131.929 45.1894L131.924 46.0285L135.924 46.05L135.929 45.2109L131.929 45.1894ZM134.793 38.7922C135.292 38.2209 135.901 37.7205 136.413 37.3516C136.663 37.1711 136.877 37.0309 137.025 36.9382C137.099 36.892 137.155 36.858 137.19 36.8372C137.208 36.8269 137.22 36.8198 137.226 36.8162C137.229 36.8144 137.231 36.8134 137.231 36.8133C137.231 36.8133 137.231 36.8135 137.23 36.8139C137.23 36.8141 137.229 36.8144 137.229 36.8147C137.228 36.8148 137.228 36.815 137.228 36.8152C137.228 36.8153 137.227 36.8154 137.227 36.8155C137.227 36.8156 137.227 36.8158 136.246 35.0727C135.265 33.3297 135.265 33.3299 135.265 33.33C135.264 33.3301 135.264 33.3303 135.264 33.3304C135.264 33.3306 135.263 33.3309 135.263 33.3312C135.262 33.3317 135.261 33.3323 135.259 33.333C135.257 33.3343 135.254 33.3359 135.251 33.3377C135.245 33.3413 135.237 33.3459 135.227 33.3514C135.208 33.3624 135.183 33.3772 135.152 33.3956C135.089 33.4325 135.004 33.4842 134.899 33.5498C134.69 33.6807 134.403 33.869 134.072 34.1078C133.421 34.5774 132.551 35.2787 131.781 36.1601L134.793 38.7922ZM135.043 36.6704L142.275 42.1167L144.681 38.9214L137.449 33.4751L135.043 36.6704ZM143.478 40.5191C141.984 39.1897 141.984 39.1896 141.984 39.1895C141.984 39.1894 141.984 39.1894 141.984 39.1893C141.984 39.1892 141.984 39.1892 141.984 39.1892C141.984 39.1891 141.984 39.1892 141.984 39.1895C141.984 39.1899 141.983 39.1909 141.981 39.1924C141.979 39.1953 141.974 39.2003 141.968 39.2072C141.956 39.2211 141.936 39.2426 141.91 39.2713C141.858 39.3287 141.78 39.4144 141.679 39.523C141.476 39.7405 141.185 40.0485 140.832 40.4052C140.119 41.126 139.189 42.0134 138.261 42.7523L140.752 45.8817C141.856 45.003 142.911 43.9914 143.676 43.2177C144.062 42.827 144.383 42.4889 144.608 42.247C144.72 42.126 144.809 42.0286 144.871 41.9605C144.902 41.9264 144.926 41.8995 144.943 41.8807C144.952 41.8712 144.959 41.8638 144.963 41.8584C144.966 41.8557 144.968 41.8535 144.969 41.8518C144.97 41.851 144.971 41.8503 144.971 41.8497C144.971 41.8495 144.971 41.8492 144.972 41.849C144.972 41.8489 144.972 41.8488 144.972 41.8487C144.972 41.8486 144.972 41.8485 143.478 40.5191ZM139.499 46.317L139.535 46.3171L139.55 42.3172L139.514 42.317L139.499 46.317ZM139.532 46.3171C140.235 46.3209 141.31 46.5684 142.665 47.0617C143.976 47.5395 145.387 48.1861 146.704 48.85C148.015 49.5112 149.203 50.174 150.065 50.6725C150.495 50.9213 150.841 51.128 151.079 51.2714C151.198 51.3432 151.289 51.399 151.35 51.4363C151.38 51.455 151.403 51.469 151.417 51.4781C151.425 51.4827 151.43 51.4859 151.433 51.488C151.435 51.489 151.436 51.4897 151.436 51.49C151.437 51.4902 151.437 51.4903 151.437 51.4903C151.437 51.4903 151.437 51.4903 151.437 51.4903C151.437 51.4902 151.437 51.4901 152.496 49.794C153.556 48.0979 153.556 48.0978 153.556 48.0976C153.556 48.0976 153.555 48.0974 153.555 48.0972C153.555 48.0969 153.554 48.0965 153.553 48.096C153.552 48.0951 153.55 48.0938 153.547 48.0922C153.542 48.0889 153.535 48.0844 153.525 48.0786C153.507 48.067 153.48 48.0505 153.445 48.0292C153.376 47.9866 153.276 47.9252 153.147 47.8478C152.891 47.6929 152.523 47.4732 152.068 47.2103C151.161 46.6855 149.903 45.9834 148.504 45.2782C147.111 44.5757 145.547 43.8545 144.034 43.3033C142.563 42.7675 140.962 42.3247 139.553 42.3172L139.532 46.3171ZM152.496 49.794C151.435 48.0989 151.435 48.0988 151.435 48.0987C151.435 48.0987 151.435 48.0987 151.435 48.0987C151.435 48.0987 151.435 48.0988 151.435 48.099C151.434 48.0993 151.433 48.1 151.432 48.1011C151.428 48.1031 151.423 48.1064 151.416 48.111C151.401 48.1201 151.378 48.1343 151.347 48.1531C151.286 48.1907 151.195 48.247 151.075 48.3193C150.836 48.464 150.487 48.6722 150.055 48.9228C149.188 49.425 147.993 50.0921 146.675 50.7561C145.351 51.4229 143.935 52.0706 142.619 52.5461C141.26 53.0375 140.189 53.2773 139.494 53.2736L139.473 57.2735C140.891 57.2811 142.503 56.8417 143.979 56.3078C145.5 55.758 147.073 55.0344 148.474 54.3285C149.881 53.6198 151.147 52.9128 152.06 52.384C152.517 52.1191 152.888 51.8976 153.146 51.7415C153.275 51.6633 153.376 51.6014 153.446 51.5585C153.481 51.537 153.508 51.5203 153.527 51.5086C153.536 51.5028 153.543 51.4982 153.548 51.4949C153.551 51.4933 153.553 51.492 153.555 51.491C153.555 51.4906 153.556 51.4902 153.557 51.4898C153.557 51.4897 153.557 51.4895 153.557 51.4894C153.558 51.4893 153.558 51.4891 152.496 49.794ZM139.494 53.2736C139.351 53.2728 139.209 53.2686 139.068 53.261L138.854 57.2553C139.059 57.2663 139.265 57.2724 139.473 57.2735L139.494 53.2736ZM137.911 56.9603C139.094 57.6903 140.406 58.6973 141.45 59.551C141.966 59.9723 142.403 60.3455 142.711 60.6125C142.865 60.7459 142.985 60.8523 143.067 60.9246C143.108 60.9607 143.138 60.9882 143.158 61.0062C143.168 61.0153 143.176 61.0219 143.18 61.026C143.183 61.0281 143.184 61.0295 143.185 61.0304C143.186 61.0308 143.186 61.031 143.186 61.0311C143.186 61.0311 143.186 61.0311 143.186 61.0311C143.186 61.0311 143.186 61.031 143.186 61.031C143.186 61.0309 143.186 61.0309 144.527 59.5476C145.869 58.0643 145.869 58.0642 145.869 58.064C145.869 58.064 145.869 58.0639 145.868 58.0638C145.868 58.0636 145.868 58.0633 145.868 58.063C145.867 58.0625 145.866 58.0617 145.865 58.0608C145.863 58.0591 145.861 58.0566 145.857 58.0535C145.85 58.0474 145.841 58.0387 145.828 58.0277C145.804 58.0055 145.768 57.9736 145.722 57.933C145.631 57.8519 145.499 57.7356 145.333 57.5918C145.002 57.3043 144.534 56.9049 143.982 56.4537C142.891 55.5623 141.419 54.4247 140.011 53.556L137.911 56.9603ZM144.527 59.5476C143.181 58.0688 143.181 58.0687 143.181 58.0686C143.181 58.0686 143.181 58.0686 143.181 58.0686C143.181 58.0686 143.181 58.0686 143.181 58.0688C143.18 58.0691 143.18 58.0698 143.179 58.0707C143.177 58.0727 143.173 58.0759 143.168 58.0804C143.158 58.0894 143.143 58.1035 143.122 58.1222C143.08 58.1595 143.017 58.2156 142.936 58.2877C142.773 58.4319 142.536 58.6398 142.243 58.8899C141.656 59.3918 140.854 60.0562 139.987 60.7159C139.111 61.3816 138.209 62.0122 137.414 62.4664C137.017 62.6933 136.683 62.8555 136.418 62.9563C136.13 63.0658 136.04 63.0582 136.095 63.0585L136.074 67.0585C136.723 67.0619 137.342 66.8845 137.842 66.6944C138.364 66.4955 138.893 66.2283 139.399 65.9392C140.41 65.3612 141.47 64.6133 142.408 63.8997C143.354 63.1801 144.218 62.4643 144.842 61.9309C145.155 61.6634 145.41 61.4398 145.588 61.282C145.677 61.2031 145.747 61.1405 145.796 61.097C145.82 61.0753 145.839 61.0583 145.852 61.0464C145.858 61.0404 145.864 61.0357 145.867 61.0324C145.869 61.0307 145.871 61.0293 145.872 61.0283C145.872 61.0278 145.873 61.0274 145.873 61.027C145.873 61.0269 145.874 61.0267 145.874 61.0266C145.874 61.0264 145.874 61.0263 144.527 59.5476ZM136.084 65.0585C137.084 63.3261 137.084 63.3262 137.084 63.3264C137.084 63.3264 137.085 63.3266 137.085 63.3267C137.085 63.3268 137.085 63.327 137.086 63.3272C137.086 63.3275 137.087 63.3277 137.087 63.3279C137.088 63.3283 137.088 63.3285 137.088 63.3286C137.088 63.3286 137.087 63.3279 137.084 63.3263C137.079 63.3233 137.069 63.3172 137.054 63.3082C137.024 63.29 136.975 63.2601 136.911 63.2192C136.782 63.1371 136.594 63.0122 136.37 62.8507C135.916 62.522 135.355 62.0686 134.866 61.5415L131.935 64.2637C132.661 65.0454 133.443 65.6699 134.026 66.0919C134.322 66.3058 134.576 66.4745 134.761 66.5921C134.853 66.6511 134.929 66.6976 134.984 66.7309C135.011 66.7475 135.034 66.7609 135.051 66.7709C135.059 66.776 135.066 66.7801 135.072 66.7835C135.075 66.7851 135.078 66.7866 135.08 66.7878C135.081 66.7884 135.082 66.789 135.083 66.7895C135.083 66.7898 135.083 66.79 135.084 66.7902C135.084 66.7903 135.084 66.7905 135.084 66.7906C135.085 66.7907 135.085 66.7909 136.084 65.0585ZM133.411 60.9026L122.575 60.8444L122.553 64.8444L133.39 64.9026L133.411 60.9026ZM124.564 62.8552L124.701 37.43L120.701 37.4085L120.564 62.8336L124.564 62.8552ZM122.69 39.4192L133.276 39.4761L133.298 35.4762L122.712 35.4193L122.69 39.4192Z" fill="#131626" mask="url(#path-7-inside-1_778_11730)"/>
<path d="M0.817175 93.683L9.05743 93.4283L8.80725 85.3471L0.566997 85.6018L0.817175 93.683ZM20.8594 71.3284L4.07692 88.8373L5.54751 90.1929L22.33 72.684L20.8594 71.3284Z" fill="#F2522E"/>
<path d="M12.767 80.8279L14.4854 79.0969L23.6669 88.2353L21.9395 89.9573L12.767 80.8279Z" fill="#F2522E"/>
<path d="M9.9636 102.821L18.2039 102.566L17.9537 94.4848L9.71341 94.7394L9.9636 102.821ZM30.0059 80.4661L13.2234 97.9749L14.6939 99.3305L31.4765 81.8217L30.0059 80.4661Z" fill="#F2522E"/>
</svg>
