<svg width="161" height="98" viewBox="0 0 161 98" fill="none" xmlns="http://www.w3.org/2000/svg">
<path d="M97.4532 1.58337H72.3069L32.1797 20.2667V46.7348L72.3069 68.532H97.4532L129.02 95V68.532L97.4532 1.58337Z" fill="#475641" stroke="#131626" stroke-width="2"/>
<path d="M85.8443 11.1646C85.8443 16.2554 82.324 20.2458 78.1375 20.2458C73.9509 20.2458 70.4307 16.2554 70.4307 11.1646C70.4307 6.07373 73.9509 2.08337 78.1375 2.08337C82.324 2.08337 85.8443 6.07373 85.8443 11.1646Z" fill="#D9D9D9" stroke="#131626"/>
<ellipse cx="78.9579" cy="11.1646" rx="4.1034" ry="4.7906" fill="#131626"/>
<path d="M69.9307 11.1646C72.2343 3.93437 78.7422 -6.1879 86.3443 11.1646" stroke="#131626" stroke-width="3"/>
<path d="M155.795 74.8087L159.21 78.7874L156.608 83.2436L140.022 83.2436L142.786 89.7687L136.119 86.904L136.119 83.2436L129.289 84.1985L129.289 78.7874L135.143 78.7874L135.143 74.8087L141.485 71.1483L140.022 77.0368L155.795 74.8087Z" fill="#F2522E" stroke="#131626" stroke-width="2"/>
<path d="M0.935414 33.2407L7.24298 38.5666L12.451 32.3969L6.14342 27.071L0.935414 33.2407ZM31.2993 30.0132L6.59798 31.8233L6.78843 33.8144L31.4898 32.0043L31.2993 30.0132Z" fill="#F2522E"/>
<path d="M18.6673 31.6723L21.1544 31.5328L21.8821 44.4617L19.3943 44.5883L18.6673 31.6723Z" fill="#F2522E"/>
<path d="M1.63658 46.145L7.94418 51.471L13.1522 45.3013L6.84456 39.9753L1.63658 46.145ZM32.0005 42.9177L7.29914 44.7276L7.4896 46.7187L32.1909 44.9088L32.0005 42.9177Z" fill="#F2522E"/>
</svg>
