<svg width="161" height="98" viewBox="0 0 161 98" fill="none" xmlns="http://www.w3.org/2000/svg">
<path d="M97.2462 1.58337H72.0998L31.9727 20.2667V46.7348L72.0998 68.532H97.2462L128.813 95V68.532L97.2462 1.58337Z" fill="#475641" stroke="#131626" stroke-width="2"/>
<path d="M85.6372 11.1646C85.6372 16.2554 82.117 20.2458 77.9304 20.2458C73.7439 20.2458 70.2236 16.2554 70.2236 11.1646C70.2236 6.07373 73.7439 2.08337 77.9304 2.08337C82.117 2.08337 85.6372 6.07373 85.6372 11.1646Z" fill="#D9D9D9" stroke="#131626"/>
<ellipse cx="78.7509" cy="11.1646" rx="4.1034" ry="4.7906" fill="#131626"/>
<path d="M69.7236 11.1646C72.0273 3.93437 78.5351 -6.1879 86.1372 11.1646" stroke="#131626" stroke-width="3"/>
<path d="M155.587 74.8087L159.002 78.7874L156.4 83.2436L139.814 83.2436L142.578 89.7687L135.911 86.904L135.911 83.2436L129.081 84.1985L129.081 78.7874L134.935 78.7874L134.935 74.8087L141.277 71.1483L139.814 77.0368L155.587 74.8087Z" fill="#F2522E" stroke="#131626" stroke-width="2"/>
<path d="M0.727407 33.2407L7.03497 38.5666L12.243 32.3969L5.93542 27.071L0.727407 33.2407ZM31.0913 30.0132L6.38997 31.8233L6.58042 33.8144L31.2817 32.0043L31.0913 30.0132Z" fill="#F2522E"/>
<path d="M18.4593 31.6723L20.9464 31.5328L21.6741 44.4617L19.1863 44.5883L18.4593 31.6723Z" fill="#F2522E"/>
<path d="M1.42857 46.145L7.73617 51.471L12.9441 45.3013L6.63655 39.9753L1.42857 46.145ZM31.7925 42.9177L7.09113 44.7276L7.28159 46.7187L31.9829 44.9088L31.7925 42.9177Z" fill="#F2522E"/>
</svg>
