<svg width="82" height="100" viewBox="0 0 82 100" fill="none" xmlns="http://www.w3.org/2000/svg">
<path d="M30.843 35.9858L36.0074 15L56.6646 24.327L80.1027 27.436L67.3905 46.09L74.5411 82.6209L50.3085 69.019L28.4595 97V62.8009L3.03516 49.9763L30.843 35.9858Z" fill="#FFFF8E" stroke="#131626" stroke-width="2"/>
<path d="M54.8397 40.2763C54.8397 42.9435 52.0249 45.2997 48.2822 45.2997C44.5395 45.2997 41.7246 42.9435 41.7246 40.2763C41.7246 37.6092 44.5395 35.2529 48.2822 35.2529C52.0249 35.2529 54.8397 37.6092 54.8397 40.2763Z" fill="#D9D9D9" stroke="#131626"/>
<ellipse cx="48.9878" cy="40.2763" rx="3.52878" ry="2.7617" fill="#131626"/>
<path d="M41.2246 40.2763C43.2057 36.1082 48.8022 30.2729 55.3397 40.2763" stroke="#131626" stroke-width="3"/>
<rect x="3.53516" y="15.5" width="76.0675" height="81" rx="10.18" stroke="#F8C428"/>
<path d="M5.60547 4.6738L9.09913 1.34827L13.0295 2.08727L14.558 6.52132L30.607 24.627L27.2225 28.0757L10.6276 9.84686H6.26053L5.60547 4.6738Z" fill="#0FA164" stroke="#131626" stroke-width="2"/>
<rect x="3.53516" y="0.5" width="29.0263" height="29" rx="10.18" stroke="#F8C428"/>
</svg>
