<svg width="82" height="100" viewBox="0 0 82 100" fill="none" xmlns="http://www.w3.org/2000/svg">
<path d="M30.0501 35.9858L35.2144 15L55.8717 24.327L79.3097 27.436L66.5975 46.09L73.7481 82.6209L49.5156 69.019L27.6665 97V62.8009L2.24219 49.9763L30.0501 35.9858Z" fill="#FFFF8E" stroke="#131626" stroke-width="2"/>
<path d="M54.0468 40.2763C54.0468 42.9435 51.2319 45.2997 47.4892 45.2997C43.7465 45.2997 40.9316 42.9435 40.9316 40.2763C40.9316 37.6092 43.7465 35.2529 47.4892 35.2529C51.2319 35.2529 54.0468 37.6092 54.0468 40.2763Z" fill="#D9D9D9" stroke="#131626"/>
<ellipse cx="48.1948" cy="40.2763" rx="3.52878" ry="2.7617" fill="#131626"/>
<path d="M40.4316 40.2763C42.4127 36.1082 48.0092 30.2729 54.5468 40.2763" stroke="#131626" stroke-width="3"/>
<rect x="2.74219" y="15.5" width="76.0675" height="81" rx="10.18" stroke="#F8C428"/>
<path d="M4.8125 4.6738L8.30616 1.34827L12.2365 2.08727L13.765 6.52132L29.814 24.627L26.4295 28.0757L9.83463 9.84686H5.46756L4.8125 4.6738Z" fill="#0FA164" stroke="#131626" stroke-width="2"/>
<rect x="2.74219" y="0.5" width="29.0263" height="29" rx="10.18" stroke="#F8C428"/>
</svg>
