<svg width="138" height="105" viewBox="0 0 138 105" fill="none" xmlns="http://www.w3.org/2000/svg">
<path fill-rule="evenodd" clip-rule="evenodd" d="M55.4084 104H2.8623V59.0546H32.6384V1H55.4084H88.142V59.0545H107.954V104H55.4084Z" fill="#F2522E"/>
<path d="M2.8623 104H1.8623V105H2.8623V104ZM2.8623 59.0546V58.0546H1.8623V59.0546H2.8623ZM32.6384 59.0546V60.0546H33.6384V59.0546H32.6384ZM32.6384 1V0H31.6384V1H32.6384ZM88.142 1H89.142V0H88.142V1ZM88.142 59.0545H87.142V60.0545H88.142V59.0545ZM107.954 59.0545H108.954V58.0545H107.954V59.0545ZM107.954 104V105H108.954V104H107.954ZM2.8623 105H55.4084V103H2.8623V105ZM1.8623 59.0546V104H3.8623V59.0546H1.8623ZM32.6384 58.0546H2.8623V60.0546H32.6384V58.0546ZM31.6384 1V59.0546H33.6384V1H31.6384ZM55.4084 0H32.6384V2H55.4084V0ZM55.4084 2H88.142V0H55.4084V2ZM87.142 1V59.0545H89.142V1H87.142ZM88.142 60.0545H107.954V58.0545H88.142V60.0545ZM106.954 59.0545V104H108.954V59.0545H106.954ZM107.954 103H55.4084V105H107.954V103Z" fill="#131626"/>
<path d="M70.6719 61.0833C70.6719 61.6217 70.4142 62.1788 69.856 62.7332C69.296 63.2894 68.4601 63.8133 67.3872 64.264C65.2433 65.1645 62.2469 65.7333 58.9111 65.7333C55.5754 65.7333 52.579 65.1645 50.4351 64.264C49.3622 63.8133 48.5263 63.2894 47.9662 62.7332C47.408 62.1788 47.1504 61.6217 47.1504 61.0833C47.1504 60.545 47.408 59.9879 47.9662 59.4335C48.5263 58.8773 49.3622 58.3534 50.4351 57.9027C52.579 57.0022 55.5754 56.4333 58.9111 56.4333C62.2469 56.4333 65.2433 57.0022 67.3872 57.9027C68.4601 58.3534 69.296 58.8773 69.856 59.4335C70.4142 59.9879 70.6719 60.545 70.6719 61.0833Z" fill="#D9D9D9" stroke="#131626"/>
<ellipse cx="60.1372" cy="61.0833" rx="6.13037" ry="2.575" fill="#131626"/>
<path d="M46.6504 61.0833C50.092 57.197 59.8146 51.7562 71.1719 61.0833" stroke="#131626" stroke-width="3"/>
<rect x="3.3623" y="1.5" width="104.092" height="102" rx="10.18" stroke="#F2522E"/>
<mask id="path-8-inside-1_778_11651" fill="white">
<path fill-rule="evenodd" clip-rule="evenodd" d="M119.299 92.4911C119.665 92.7763 120.072 93.0338 120.513 93.2588C120.076 93.3948 119.665 93.6156 119.291 93.9068L119.299 92.4911ZM119.339 85.0392C119.537 84.8881 119.747 84.745 119.968 84.6109C119.75 84.4954 119.542 84.3577 119.344 84.2002L119.339 85.0392ZM118.702 76.4761C119.971 75.0235 121.661 74.0727 121.661 74.0727L128.893 79.5191C128.893 79.5191 126.953 81.6994 124.921 83.317L124.957 83.3171C129.183 83.3399 137.911 88.794 137.911 88.794C137.911 88.794 129.124 94.2963 124.898 94.2735C124.723 94.2726 124.549 94.2674 124.376 94.2582C126.967 95.8568 129.942 98.5476 129.942 98.5476C129.942 98.5476 123.877 104.071 121.499 104.058C121.499 104.058 120.031 103.211 118.815 101.903L107.979 101.844L108.116 76.4193L118.702 76.4761Z"/>
</mask>
<path fill-rule="evenodd" clip-rule="evenodd" d="M119.299 92.4911C119.665 92.7763 120.072 93.0338 120.513 93.2588C120.076 93.3948 119.665 93.6156 119.291 93.9068L119.299 92.4911ZM119.339 85.0392C119.537 84.8881 119.747 84.745 119.968 84.6109C119.75 84.4954 119.542 84.3577 119.344 84.2002L119.339 85.0392ZM118.702 76.4761C119.971 75.0235 121.661 74.0727 121.661 74.0727L128.893 79.5191C128.893 79.5191 126.953 81.6994 124.921 83.317L124.957 83.3171C129.183 83.3399 137.911 88.794 137.911 88.794C137.911 88.794 129.124 94.2963 124.898 94.2735C124.723 94.2726 124.549 94.2674 124.376 94.2582C126.967 95.8568 129.942 98.5476 129.942 98.5476C129.942 98.5476 123.877 104.071 121.499 104.058C121.499 104.058 120.031 103.211 118.815 101.903L107.979 101.844L108.116 76.4193L118.702 76.4761Z" fill="#F2522E"/>
<path d="M120.513 93.2588L121.108 95.1685L125.802 93.7077L121.421 91.4766L120.513 93.2588ZM119.299 92.4911L120.529 90.9141L117.321 88.4118L117.299 92.4804L119.299 92.4911ZM119.291 93.9068L117.291 93.8961L117.269 98.0176L120.521 95.4845L119.291 93.9068ZM119.339 85.0392L117.339 85.0285L117.317 89.0971L120.552 86.6294L119.339 85.0392ZM119.968 84.6109L121.007 86.3202L124.015 84.4925L120.905 82.8438L119.968 84.6109ZM119.344 84.2002L120.59 82.6357L117.366 80.068L117.344 84.1894L119.344 84.2002ZM118.702 76.4761L118.691 78.4761L119.606 78.481L120.208 77.7922L118.702 76.4761ZM121.661 74.0727L122.864 72.4751L121.82 71.6886L120.68 72.3297L121.661 74.0727ZM128.893 79.5191L130.387 80.8485L131.83 79.227L130.096 77.9214L128.893 79.5191ZM124.921 83.317L123.676 81.7523L119.225 85.2959L124.914 85.317L124.921 83.317ZM124.957 83.3171L124.968 81.3172L124.965 81.3172L124.957 83.3171ZM137.911 88.794L138.973 90.4891L141.683 88.7923L138.971 87.0979L137.911 88.794ZM124.376 94.2582L124.483 92.261L123.326 95.9603L124.376 94.2582ZM129.942 98.5476L131.289 100.026L132.918 98.5425L131.284 97.0643L129.942 98.5476ZM121.499 104.058L120.5 105.791L120.959 106.056L121.489 106.058L121.499 104.058ZM118.815 101.903L120.281 100.541L119.692 99.9073L118.826 99.9026L118.815 101.903ZM107.979 101.844L105.979 101.834L105.968 103.834L107.968 103.844L107.979 101.844ZM108.116 76.4193L108.127 74.4193L106.127 74.4086L106.116 76.4085L108.116 76.4193ZM121.421 91.4766C121.086 91.306 120.788 91.116 120.529 90.9141L118.069 94.0681C118.541 94.4366 119.057 94.7617 119.606 95.0409L121.421 91.4766ZM120.521 95.4845C120.72 95.3291 120.919 95.2272 121.108 95.1685L119.919 91.3491C119.234 91.5623 118.61 91.9021 118.062 92.3291L120.521 95.4845ZM117.299 92.4804L117.291 93.8961L121.291 93.9176L121.299 92.5019L117.299 92.4804ZM120.552 86.6294C120.692 86.5225 120.844 86.419 121.007 86.3202L118.93 82.9016C118.651 83.0711 118.382 83.2537 118.126 83.4491L120.552 86.6294ZM120.905 82.8438C120.801 82.7888 120.695 82.7199 120.59 82.6357L118.098 85.7646C118.388 85.9956 118.7 86.202 119.031 86.378L120.905 82.8438ZM117.344 84.1894L117.339 85.0285L121.339 85.05L121.344 84.2109L117.344 84.1894ZM120.208 77.7922C120.707 77.2209 121.316 76.7205 121.828 76.3516C122.078 76.1711 122.292 76.0309 122.44 75.9382C122.514 75.892 122.57 75.858 122.605 75.8372C122.623 75.8269 122.635 75.8198 122.641 75.8162C122.644 75.8144 122.646 75.8134 122.646 75.8133C122.646 75.8133 122.646 75.8135 122.645 75.8139C122.645 75.8141 122.644 75.8144 122.644 75.8147C122.643 75.8148 122.643 75.815 122.643 75.8152C122.643 75.8153 122.642 75.8154 122.642 75.8155C122.642 75.8156 122.642 75.8158 121.661 74.0727C120.68 72.3297 120.68 72.3299 120.68 72.33C120.68 72.3301 120.679 72.3303 120.679 72.3304C120.679 72.3306 120.678 72.3309 120.678 72.3312C120.677 72.3317 120.676 72.3323 120.674 72.333C120.672 72.3343 120.669 72.3359 120.666 72.3377C120.66 72.3413 120.652 72.3459 120.642 72.3514C120.623 72.3624 120.598 72.3772 120.567 72.3956C120.504 72.4325 120.419 72.4842 120.314 72.5498C120.106 72.6807 119.818 72.869 119.487 73.1078C118.836 73.5774 117.966 74.2787 117.196 75.1601L120.208 77.7922ZM120.458 75.6704L127.69 81.1167L130.096 77.9214L122.864 72.4751L120.458 75.6704ZM128.893 79.5191C127.399 78.1897 127.399 78.1896 127.399 78.1895C127.399 78.1894 127.399 78.1894 127.399 78.1893C127.399 78.1892 127.399 78.1892 127.399 78.1892C127.399 78.1891 127.399 78.1892 127.399 78.1895C127.399 78.1899 127.398 78.1909 127.396 78.1924C127.394 78.1953 127.389 78.2003 127.383 78.2072C127.371 78.2211 127.351 78.2426 127.325 78.2713C127.273 78.3287 127.195 78.4144 127.094 78.523C126.891 78.7405 126.6 79.0485 126.247 79.4052C125.534 80.126 124.604 81.0134 123.676 81.7523L126.167 84.8817C127.271 84.003 128.326 82.9914 129.091 82.2177C129.477 81.827 129.798 81.4889 130.023 81.247C130.135 81.126 130.224 81.0286 130.286 80.9605C130.317 80.9264 130.341 80.8995 130.358 80.8807C130.367 80.8712 130.374 80.8638 130.378 80.8584C130.381 80.8557 130.383 80.8535 130.384 80.8518C130.385 80.851 130.386 80.8503 130.386 80.8497C130.386 80.8495 130.387 80.8492 130.387 80.849C130.387 80.8489 130.387 80.8488 130.387 80.8487C130.387 80.8486 130.387 80.8485 128.893 79.5191ZM124.914 85.317L124.95 85.3171L124.965 81.3172L124.929 81.317L124.914 85.317ZM124.947 85.3171C125.65 85.3209 126.725 85.5684 128.08 86.0617C129.391 86.5395 130.802 87.1861 132.119 87.85C133.43 88.5112 134.618 89.174 135.48 89.6725C135.91 89.9213 136.256 90.128 136.494 90.2714C136.613 90.3432 136.704 90.399 136.765 90.4363C136.795 90.455 136.818 90.469 136.832 90.4781C136.84 90.4827 136.845 90.4859 136.848 90.488C136.85 90.489 136.851 90.4897 136.851 90.49C136.852 90.4902 136.852 90.4903 136.852 90.4903C136.852 90.4903 136.852 90.4903 136.852 90.4903C136.852 90.4902 136.852 90.4901 137.911 88.794C138.971 87.0979 138.971 87.0978 138.971 87.0976C138.971 87.0976 138.97 87.0974 138.97 87.0972C138.97 87.0969 138.969 87.0965 138.968 87.096C138.967 87.0951 138.965 87.0938 138.962 87.0922C138.957 87.0889 138.95 87.0844 138.94 87.0786C138.922 87.067 138.895 87.0505 138.86 87.0292C138.791 86.9866 138.691 86.9252 138.562 86.8478C138.306 86.6929 137.938 86.4732 137.483 86.2103C136.576 85.6855 135.318 84.9834 133.919 84.2782C132.526 83.5757 130.962 82.8545 129.449 82.3033C127.978 81.7675 126.377 81.3247 124.968 81.3172L124.947 85.3171ZM137.911 88.794C136.85 87.0989 136.85 87.0988 136.85 87.0987C136.85 87.0987 136.85 87.0987 136.85 87.0987C136.85 87.0987 136.85 87.0988 136.85 87.099C136.849 87.0993 136.848 87.1 136.847 87.1011C136.843 87.1031 136.838 87.1064 136.831 87.111C136.816 87.1201 136.793 87.1343 136.763 87.1531C136.701 87.1907 136.61 87.247 136.49 87.3193C136.251 87.464 135.902 87.6722 135.47 87.9228C134.603 88.425 133.408 89.0921 132.09 89.7561C130.766 90.4229 129.35 91.0706 128.034 91.5461C126.675 92.0375 125.604 92.2773 124.909 92.2736L124.888 96.2735C126.306 96.2811 127.918 95.8417 129.394 95.3078C130.915 94.758 132.488 94.0344 133.889 93.3285C135.296 92.6198 136.562 91.9128 137.475 91.384C137.932 91.1191 138.303 90.8976 138.561 90.7415C138.69 90.6633 138.791 90.6014 138.861 90.5585C138.896 90.537 138.923 90.5203 138.942 90.5086C138.951 90.5028 138.958 90.4982 138.964 90.4949C138.966 90.4933 138.968 90.492 138.97 90.491C138.971 90.4906 138.971 90.4902 138.972 90.4898C138.972 90.4897 138.972 90.4895 138.972 90.4894C138.973 90.4893 138.973 90.4891 137.911 88.794ZM124.909 92.2736C124.766 92.2728 124.624 92.2686 124.483 92.261L124.269 96.2553C124.474 96.2663 124.68 96.2724 124.888 96.2735L124.909 92.2736ZM123.326 95.9603C124.509 96.6903 125.821 97.6973 126.865 98.551C127.381 98.9723 127.818 99.3455 128.126 99.6125C128.28 99.7459 128.4 99.8523 128.482 99.9246C128.523 99.9607 128.553 99.9882 128.573 100.006C128.584 100.015 128.591 100.022 128.596 100.026C128.598 100.028 128.599 100.03 128.6 100.03C128.601 100.031 128.601 100.031 128.601 100.031C128.601 100.031 128.601 100.031 128.601 100.031C128.601 100.031 128.601 100.031 128.601 100.031C128.601 100.031 128.601 100.031 129.942 98.5476C131.284 97.0643 131.284 97.0642 131.284 97.064C131.284 97.064 131.284 97.0639 131.284 97.0638C131.283 97.0636 131.283 97.0633 131.283 97.063C131.282 97.0625 131.281 97.0617 131.28 97.0608C131.278 97.0591 131.276 97.0566 131.272 97.0535C131.265 97.0474 131.256 97.0387 131.243 97.0277C131.219 97.0055 131.183 96.9736 131.137 96.933C131.046 96.8519 130.914 96.7356 130.748 96.5918C130.417 96.3043 129.949 95.9049 129.397 95.4537C128.306 94.5623 126.834 93.4247 125.426 92.556L123.326 95.9603ZM129.942 98.5476C128.596 97.0688 128.596 97.0687 128.596 97.0686C128.596 97.0686 128.596 97.0686 128.596 97.0686C128.596 97.0686 128.596 97.0686 128.596 97.0688C128.596 97.0691 128.595 97.0698 128.594 97.0707C128.592 97.0727 128.588 97.0759 128.583 97.0804C128.573 97.0894 128.558 97.1035 128.537 97.1222C128.495 97.1595 128.432 97.2156 128.351 97.2877C128.188 97.4319 127.951 97.6398 127.658 97.8899C127.071 98.3918 126.269 99.0562 125.402 99.7159C124.526 100.382 123.624 101.012 122.829 101.466C122.432 101.693 122.098 101.856 121.833 101.956C121.545 102.066 121.455 102.058 121.51 102.059L121.489 106.058C122.138 106.062 122.757 105.884 123.257 105.694C123.779 105.496 124.308 105.228 124.814 104.939C125.825 104.361 126.885 103.613 127.823 102.9C128.769 102.18 129.633 101.464 130.257 100.931C130.57 100.663 130.825 100.44 131.003 100.282C131.092 100.203 131.162 100.141 131.211 100.097C131.235 100.075 131.254 100.058 131.267 100.046C131.273 100.04 131.279 100.036 131.282 100.032C131.284 100.031 131.286 100.029 131.287 100.028C131.287 100.028 131.288 100.027 131.288 100.027C131.288 100.027 131.289 100.027 131.289 100.027C131.289 100.026 131.289 100.026 129.942 98.5476ZM121.499 104.058C122.499 102.326 122.499 102.326 122.499 102.326C122.499 102.326 122.5 102.327 122.5 102.327C122.5 102.327 122.5 102.327 122.501 102.327C122.501 102.327 122.502 102.328 122.502 102.328C122.503 102.328 122.503 102.329 122.503 102.329C122.503 102.329 122.502 102.328 122.499 102.326C122.494 102.323 122.484 102.317 122.469 102.308C122.439 102.29 122.39 102.26 122.326 102.219C122.197 102.137 122.009 102.012 121.785 101.851C121.331 101.522 120.77 101.069 120.281 100.541L117.35 103.264C118.076 104.045 118.858 104.67 119.441 105.092C119.737 105.306 119.991 105.475 120.176 105.592C120.268 105.651 120.344 105.698 120.399 105.731C120.426 105.748 120.449 105.761 120.466 105.771C120.474 105.776 120.482 105.78 120.487 105.783C120.49 105.785 120.493 105.787 120.495 105.788C120.496 105.788 120.497 105.789 120.498 105.789C120.498 105.79 120.498 105.79 120.499 105.79C120.499 105.79 120.499 105.79 120.499 105.791C120.5 105.791 120.5 105.791 121.499 104.058ZM118.826 99.9026L107.99 99.8444L107.968 103.844L118.805 103.903L118.826 99.9026ZM109.979 101.855L110.116 76.43L106.116 76.4085L105.979 101.834L109.979 101.855ZM108.105 78.4192L118.691 78.4761L118.713 74.4762L108.127 74.4193L108.105 78.4192Z" fill="#131626" mask="url(#path-8-inside-1_778_11651)"/>
<path d="M1.41142 11.4875L7.70721 16.805L12.9262 10.6259L6.63043 5.30832L1.41142 11.4875ZM31.272 8.25057L7.07557 10.061L7.26207 12.0523L31.4585 10.2419L31.272 8.25057Z" fill="#F2522E"/>
<path d="M18.8974 9.9097L21.3336 9.77024L22.0464 22.6991L19.6095 22.8258L18.8974 9.9097Z" fill="#F2522E"/>
<path d="M2.09891 24.3918L8.39473 29.7094L13.6137 23.5303L7.31789 18.2127L2.09891 24.3918ZM31.9595 21.155L7.76305 22.9654L7.94957 24.9567L32.146 23.1463L31.9595 21.155Z" fill="#F2522E"/>
</svg>
