<svg width="106" height="78" viewBox="0 0 106 78" fill="none" xmlns="http://www.w3.org/2000/svg">
<path d="M77.3874 48.9218C75.0968 73.432 68.8611 70.1606 64.7346 77H2.10312C-3.8575 71.1376 52.0818 70.0545 35.0004 48.9218C17.9191 27.7891 5.68204 1.24113 44.0652 1.24114C82.4484 1.24115 82.4485 -5.23396 77.3874 48.9218Z" fill="#F8A08C" stroke="#131626" stroke-width="2" stroke-linejoin="round"/>
<path d="M66.7651 54.3371C66.7651 56.833 64.2547 59.0172 60.9387 59.0172C57.6228 59.0172 55.1123 56.833 55.1123 54.3371C55.1123 51.8411 57.6228 49.657 60.9387 49.657C64.2547 49.657 66.7651 51.8411 66.7651 54.3371Z" fill="#D9D9D9" stroke="#131626"/>
<ellipse cx="61.5714" cy="54.3371" rx="3.1632" ry="2.59005" fill="#131626"/>
<path d="M54.6123 54.3371C56.3881 50.4281 61.4049 44.9554 67.2651 54.3371" stroke="#131626" stroke-width="3"/>
<path fill-rule="evenodd" clip-rule="evenodd" d="M83.9124 6.56013C89.7263 6.4635 97.1152 5.62626 97.1152 2.69348C97.1152 -2.22102 103.717 4.59975 104.542 9.9373C105.202 14.2073 99.8658 18.3249 97.1152 19.8499C95.3273 16.5457 90.7614 9.9373 86.8005 9.9373H83.9124V29H79.7866V9.9373H77.7236L79.7866 6.50602L79.7866 1.93097H83.9124V6.56013Z" fill="#FAA554"/>
<path d="M83.9124 6.56013H82.9124V7.57688L83.929 7.55999L83.9124 6.56013ZM104.542 9.9373L105.53 9.78452L104.542 9.9373ZM97.1152 19.8499L96.2357 20.3258L96.7165 21.2144L97.6001 20.7245L97.1152 19.8499ZM83.9124 9.9373V8.9373H82.9124V9.9373H83.9124ZM83.9124 29V30H84.9124V29H83.9124ZM79.7866 29H78.7866V30H79.7866V29ZM79.7866 9.9373H80.7866V8.9373H79.7866V9.9373ZM77.7236 9.9373L76.8666 9.42204L75.9556 10.9373H77.7236V9.9373ZM79.7866 6.50602L80.6436 7.02128L80.7866 6.78348V6.50602L79.7866 6.50602ZM79.7866 1.93097V0.93097H78.7866L78.7866 1.93097L79.7866 1.93097ZM83.9124 1.93097H84.9124V0.93097H83.9124V1.93097ZM96.1152 2.69348C96.1152 2.93516 95.9821 3.26972 95.3377 3.67464C94.6942 4.07909 93.716 4.43113 92.4713 4.71547C89.9981 5.28044 86.7786 5.51235 83.8958 5.56026L83.929 7.55999C86.8601 7.51127 90.242 7.27625 92.9167 6.66524C94.2459 6.3616 95.4784 5.94839 96.4019 5.368C97.3247 4.78807 98.1152 3.91818 98.1152 2.69348H96.1152ZM105.53 9.78452C105.077 6.85244 103.087 3.62909 101.227 1.76469C100.753 1.28978 100.264 0.87754 99.7815 0.572981C99.3163 0.279072 98.7732 0.0310008 98.2097 0.00268888C97.5721 -0.0293534 96.9618 0.229558 96.5682 0.82043C96.2258 1.33444 96.1152 1.99981 96.1152 2.69348H98.1152C98.1152 2.15852 98.2109 1.96199 98.2327 1.9292C98.2343 1.92677 98.2126 1.95716 98.1623 1.98132C98.115 2.00396 98.0885 1.99912 98.1094 2.00017C98.1777 2.0036 98.376 2.05073 98.7133 2.26385C99.0338 2.46632 99.4079 2.77292 99.811 3.17705C101.458 4.8288 103.182 7.68461 103.553 10.0901L105.53 9.78452ZM97.6001 20.7245C99.0471 19.9222 101.162 18.4482 102.847 16.5959C104.503 14.7754 105.931 12.3785 105.53 9.78452L103.553 10.0901C103.813 11.7661 102.902 13.563 101.368 15.2501C99.862 16.9053 97.9339 18.2526 96.6303 18.9753L97.6001 20.7245ZM86.8005 10.9373C87.5182 10.9373 88.3526 11.241 89.2794 11.8551C90.1979 12.4637 91.1326 13.3278 92.0297 14.3238C93.8243 16.3162 95.3694 18.7247 96.2357 20.3258L97.9947 19.374C97.0731 17.6709 95.4413 15.1231 93.5158 12.9853C92.5528 11.9162 91.4915 10.9216 90.3841 10.1879C89.285 9.45963 88.0632 8.9373 86.8005 8.9373V10.9373ZM83.9124 10.9373H86.8005V8.9373H83.9124V10.9373ZM82.9124 9.9373V29H84.9124V9.9373H82.9124ZM83.9124 28H79.7866V30H83.9124V28ZM80.7866 29V9.9373H78.7866V29H80.7866ZM77.7236 10.9373H79.7866V8.9373H77.7236V10.9373ZM78.9295 5.99076L76.8666 9.42204L78.5807 10.4526L80.6436 7.02128L78.9295 5.99076ZM80.7866 6.50602L80.7866 1.93097L78.7866 1.93097L78.7866 6.50602L80.7866 6.50602ZM79.7866 2.93097H83.9124V0.93097H79.7866V2.93097ZM82.9124 1.93097V6.56013H84.9124V1.93097H82.9124Z" fill="#131626"/>
</svg>
