<svg width="499" height="562" viewBox="0 0 499 562" fill="none" xmlns="http://www.w3.org/2000/svg">
<rect x="113.452" y="4.57349" width="228.778" height="200.984" rx="10.683" transform="rotate(14.4596 113.452 4.57349)" fill="#FFFFCA"/>
<rect x="109.15" y="3.30188" width="225.573" height="196.635" rx="10.683" transform="rotate(12.3006 109.15 3.30188)" fill="#FBC5B9"/>
<g clip-path="url(#clip0_531_11428)">
<rect x="98.6141" y="6.08533" width="224.299" height="195.995" rx="10.6809" transform="rotate(8.55808 98.6141 6.08533)" fill="#FFFFDE"/>
<path d="M187.007 93.9754L199.632 63.3892L228.886 82.2297L263.779 92.2935L240.22 117.625L242.76 174.557L209.05 148.428L169.488 185.789L177.278 134.021L141.581 108.797L187.007 93.9754Z" fill="#FFFF8E" stroke="#131626" stroke-width="4.90912"/>
<path d="M222.026 105.887C221.472 109.571 216.992 112.439 211.444 111.604C205.895 110.769 202.458 106.71 203.013 103.026C203.567 99.342 208.046 96.4742 213.595 97.3092C219.143 98.1442 222.58 102.203 222.026 105.887Z" fill="#D9D9D9" stroke="#131626" stroke-width="2.45456"/>
<ellipse cx="213.591" cy="104.618" rx="5.42048" ry="4.22753" transform="rotate(8.55808 213.591 104.618)" fill="#131626"/>
<path d="M201.799 102.843C205.758 96.9867 215.588 89.4329 223.24 106.07" stroke="#131626" stroke-width="7.36367"/>
<path d="M227.554 199.788L216.274 195.509L220.554 184.229L231.833 188.509L227.554 199.788ZM203.111 141.858L225.401 191.402L222.706 192.615L200.416 143.07L203.111 141.858Z" fill="#F8C428"/>
<path d="M133.828 41.8117L150.628 44.8736L147.622 61.3633L130.823 58.3013L133.828 41.8117ZM167.97 93.7989L139.01 52.7503L142.44 50.4246L171.401 91.4731L167.97 93.7989Z" fill="#F8C428"/>
<path d="M154.332 71.8392L157.317 75.9158L178.932 60.0188L175.927 55.9581L154.332 71.8392Z" fill="#F8C428"/>
<path d="M155.37 25.9053L172.17 28.9673L169.164 45.4568L152.365 42.3948L155.37 25.9053ZM189.513 77.8924L160.552 36.8439L163.982 34.5182L192.943 75.5666L189.513 77.8924Z" fill="#F8C428"/>
</g>
<rect x="101.306" y="9.73076" width="217.891" height="189.586" rx="7.47665" transform="rotate(8.55808 101.306 9.73076)" stroke="#131626" stroke-width="6.40855"/>
<rect x="224.782" y="214.702" width="228.778" height="193.908" rx="10.683" transform="rotate(-5.97114 224.782 214.702)" fill="#DADDD9"/>
<rect x="220.412" y="214.602" width="225.573" height="192.746" rx="10.683" transform="rotate(-8.13012 220.412 214.602)" fill="#64F6B9"/>
<g clip-path="url(#clip1_531_11428)">
<rect x="213.204" y="215.935" width="224.299" height="195.995" rx="10.6809" transform="rotate(-11.8727 213.204 215.935)" fill="#FCDCD5"/>
<path d="M347.865 312.365L344.889 307.855L350.281 308.198L412.289 312.138L371.334 282.835L369.196 281.305L370.675 279.132C371.774 277.519 373.51 276.315 375.3 275.353C377.136 274.366 379.331 273.479 381.64 272.628C383.178 272.062 384.766 271.51 386.381 270.949C389.756 269.777 393.25 268.563 396.66 267.084C401.669 264.911 405.975 262.366 408.726 259.072C411.355 255.925 412.693 251.95 411.525 246.396C409.127 234.988 397.648 225.262 383.549 218.825C369.515 212.417 354.053 209.811 345.047 211.704C309.259 219.228 284.982 246.076 283.098 274.14C282.627 281.161 283.89 285.347 285.776 287.917C287.641 290.459 290.434 291.855 294.008 292.609C297.524 293.351 301.465 293.407 305.534 293.466C305.668 293.467 305.802 293.469 305.937 293.471C309.953 293.53 314.282 293.604 317.712 294.708L320.959 295.752L319.188 298.666L293.611 340.751L368.172 343.142L347.865 312.365Z" fill="#FBC5B9" stroke="#131626" stroke-width="5.38154"/>
<path d="M356.439 268.517C357.294 272.587 353.903 277.207 348.143 278.418C342.383 279.629 337.418 276.766 336.562 272.696C335.707 268.625 339.098 264.005 344.858 262.794C350.618 261.584 355.583 264.447 356.439 268.517Z" fill="#FFFAF5" stroke="#131626" stroke-width="2.69077"/>
<ellipse cx="347.626" cy="270.37" rx="5.75044" ry="4.664" transform="rotate(-11.8727 347.626 270.37)" fill="#131626"/>
<path d="M335.246 272.972C336.957 265.42 343.854 253.899 357.755 268.24" stroke="#131626" stroke-width="8.07231"/>
<path d="M320.127 252.321C320.983 256.391 317.591 261.011 311.831 262.222C306.071 263.433 301.106 260.57 300.251 256.5C299.395 252.43 302.787 247.81 308.547 246.599C314.306 245.388 319.271 248.251 320.127 252.321Z" fill="#FFFAF5" stroke="#131626" stroke-width="2.69077"/>
<ellipse cx="311.314" cy="254.174" rx="5.75044" ry="4.664" transform="rotate(-11.8727 311.314 254.174)" fill="#131626"/>
<path d="M298.934 256.777C300.645 249.224 307.542 237.704 321.444 252.044" stroke="#131626" stroke-width="8.07231"/>
<path d="M303.823 318.247C285.571 340.792 272.2 317.1 267.796 302.436L255.161 275.33C259.67 277.925 271.927 286.261 284.879 298.845C297.831 311.428 299.766 302.092 299.114 295.852L316.197 292.26L320.905 314.655C319.391 307.453 306.253 315.245 303.823 318.247Z" fill="#FAA554" stroke="#131626" stroke-width="5.83073" stroke-linejoin="round"/>
<path d="M411.028 356.328L389.689 359.046L386.971 337.707L408.31 334.989L411.028 356.328ZM350.609 306.231L400.612 344.934L397.387 349.101L347.384 310.398L350.609 306.231Z" fill="#FAA554"/>
</g>
<rect x="216.999" y="218.411" width="217.891" height="189.586" rx="7.47665" transform="rotate(-11.8727 216.999 218.411)" stroke="#131626" stroke-width="6.40855"/>
<rect x="98.4669" y="297.802" width="208.546" height="195.977" rx="10.683" transform="rotate(20.9015 98.4669 297.802)" fill="#FBC5B9"/>
<rect x="94.3344" y="296.056" width="214.188" height="194.921" rx="10.683" transform="rotate(18.7425 94.3344 296.056)" fill="#FFFFCA"/>
<g clip-path="url(#clip2_531_11428)">
<rect x="83.5853" y="297.343" width="224.299" height="195.995" rx="10.6809" transform="rotate(15 83.5853 297.343)" fill="#78FFCD"/>
<path d="M211.702 473.776L206.453 493.366L93.8114 463.184L99.0605 443.594L136.492 420.293C129.241 413.101 106.157 410.59 118.517 389.756C130.877 368.922 159.623 358.078 189.265 366.02C205.074 370.256 231.976 398.111 226.465 418.68C220.953 439.249 198.036 450.868 190.577 454.993L211.702 473.776Z" fill="#0FA164" stroke="#131626" stroke-width="5.83073"/>
<path d="M178.167 393.44C177.244 396.884 172.83 399.053 167.958 397.747C163.086 396.442 160.348 392.357 161.271 388.913C162.194 385.469 166.608 383.3 171.48 384.606C176.352 385.911 179.09 389.996 178.167 393.44Z" fill="#D9D9D9" stroke="#131626" stroke-width="1.94358"/>
<ellipse cx="170.658" cy="391.428" rx="4.85894" ry="3.88716" transform="rotate(15 170.658 391.428)" fill="#131626"/>
<path d="M160.332 388.661C164.486 383.701 174.055 377.762 179.106 393.692" stroke="#131626" stroke-width="5.83073"/>
<path d="M252.798 467.635L240.896 447.02L220.281 458.922L232.183 479.537L252.798 467.635ZM194.483 455.028L235.785 466.095L237.294 460.463L195.992 449.396L194.483 455.028Z" fill="#F2522E"/>
<path d="M110.553 422.92C84.0826 434.781 82.8643 407.604 85.564 392.533L86.5451 362.642C89.3947 366.995 96.56 379.972 102.425 397.051C108.29 414.13 114.236 406.677 116.476 400.816L133.338 405.333L127.415 427.438C129.32 420.329 114.078 421.341 110.553 422.92Z" fill="#F2522E" stroke="#131626" stroke-width="5.83073" stroke-linejoin="round"/>
</g>
<rect x="85.8511" y="301.268" width="217.891" height="189.586" rx="7.47665" transform="rotate(15 85.8511 301.268)" stroke="#131626" stroke-width="6.40855"/>
<path d="M16.9411 468.498L33.5586 476.407L50.3799 468.941L42.4703 485.559L49.9364 502.38L33.319 494.47L16.4977 501.936L24.4073 485.319L16.9411 468.498Z" fill="#475641"/>
<path d="M55.0173 180.572L71.7095 188.517L88.6066 181.017L80.6613 197.71L88.1611 214.607L71.4689 206.661L54.5719 214.161L62.5171 197.469L55.0173 180.572Z" fill="#F2522E"/>
<path d="M457.746 357.386L471.229 363.804L484.878 357.746L478.46 371.229L484.518 384.878L471.035 378.46L457.386 384.519L463.804 371.035L457.746 357.386Z" fill="#F8C428"/>
<defs>
<clipPath id="clip0_531_11428">
<rect x="98.6141" y="6.08533" width="224.299" height="195.995" rx="10.6809" transform="rotate(8.55808 98.6141 6.08533)" fill="white"/>
</clipPath>
<clipPath id="clip1_531_11428">
<rect x="213.204" y="215.935" width="224.299" height="195.995" rx="10.6809" transform="rotate(-11.8727 213.204 215.935)" fill="white"/>
</clipPath>
<clipPath id="clip2_531_11428">
<rect x="83.5853" y="297.343" width="224.299" height="195.995" rx="10.6809" transform="rotate(15 83.5853 297.343)" fill="white"/>
</clipPath>
</defs>
</svg>
