<svg width="176" height="32" viewBox="0 0 176 32" fill="none" xmlns="http://www.w3.org/2000/svg">
<path d="M20.0273 31.7916L31.0562 16.9079L43.5735 0H50.2264V31.7916H43.5735V4.77767H47.2944L37.4711 18.2846L27.6478 31.7916H20.0273ZM30.0563 26.4335L35.1222 19.4679H43.5735V26.4335H30.0563Z" fill="#131626"/>
<path d="M60.0081 19.1107V12.9488H65.4109C66.6314 12.9488 67.5542 12.6512 68.1793 12.0558C68.8342 11.4605 69.1616 10.6716 69.1616 9.6893C69.1616 8.70697 68.8342 7.91813 68.1793 7.32278C67.5542 6.72744 66.6314 6.42976 65.4109 6.42976H60.0081V0H66.8398C69.0425 0 70.9774 0.401859 72.6444 1.20558C74.3114 2.0093 75.6211 3.12558 76.5737 4.55442C77.5263 5.98325 78.0025 7.65023 78.0025 9.55534C78.0025 11.4605 77.5114 13.1274 76.529 14.5563C75.5765 15.9851 74.237 17.1014 72.5104 17.9051C70.7839 18.7088 68.7449 19.1107 66.3932 19.1107H60.0081ZM52.7746 31.7916V0H61.7049V31.7916H52.7746ZM69.9207 31.7916L61.2584 18.2177L69.2956 16.4763L80.0565 31.7916H69.9207Z" fill="#131626"/>
<path d="M82.295 31.7916V0H91.2252V31.7916H82.295ZM89.5285 31.7916V24.3795H106.585V31.7916H89.5285ZM89.5285 19.2V11.9665H104.933V19.2H89.5285ZM89.5285 7.41209V0H106.317V7.41209H89.5285Z" fill="#131626"/>
<path d="M110.812 31.7916V0H117.064L119.743 6.69767V31.7916H110.812ZM132.691 31.7916L114.251 8.61767L117.064 0L135.504 23.1739L132.691 31.7916ZM132.691 31.7916L130.459 24.7367V0H139.389V31.7916H132.691Z" fill="#131626"/>
<path d="M142.283 31.7916L154.384 0H163.492L175.459 31.7916H166.171L157.286 4.77767H160.501L151.392 31.7916H142.283ZM150.142 26.4335V19.4679H167.913V26.4335H150.142Z" fill="#131626"/>
<path d="M0.000901953 32L0 8.26159e-06H2.8746L2.87462 30.6158L0.402763 29.8121H4.02066L1.45951 30.6158L23.6851 4.24449e-06H27.6858L21.8365 8L18.9118 12L15.9872 16L10.1379 24L4.28857 32H0.000901953Z" fill="#F2522E"/>
<circle cx="23.8415" cy="15.8952" r="1.58952" fill="#F2522E"/>
</svg>
